<svg height="1102" node-id="1" sillyvg="true" template-height="1102" template-width="1736" version="1.1" viewBox="0 0 1736 1102" width="1736" xmlns="http://www.w3.org/2000/svg" xmlns:xlink="http://www.w3.org/1999/xlink"><defs node-id="94"></defs><path d="M 1248.96 585.00 L 1607.96 585.00 C 1614.56 585.00 1619.96 590.40 1619.96 597.00 L 1619.96 944.00 C 1619.96 950.60 1614.56 956.00 1607.96 956.00 L 1248.96 956.00 C 1242.36 956.00 1236.96 950.60 1236.96 944.00 L 1236.96 597.00 C 1236.96 590.40 1242.36 585.00 1248.96 585.00 Z" fill="#d2e9fe" fill-rule="nonzero" node-id="96" stroke="none" target-height="371" target-width="383" target-x="1236.96" target-y="585"/><path d="M 1573.96 517.00 L 1723.96 517.00 C 1730.56 517.00 1735.96 522.40 1735.96 529.00 C 1735.96 535.60 1730.56 541.00 1723.96 541.00 L 1573.96 541.00 C 1567.36 541.00 1561.96 535.60 1561.96 529.00 C 1561.96 522.40 1567.36 517.00 1573.96 517.00 Z" fill="#315bf4" fill-rule="nonzero" node-id="98" stroke="none" target-height="24" target-width="174" target-x="1561.96" target-y="517"/><path d="M 110.63 205.00 C 99.61 205.58 92.18 212.27 83.53 218.37 C 79.27 221.37 74.92 224.38 70.52 227.17 C 66.94 229.44 63.72 230.96 62.20 235.22 C 60.49 240.02 66.79 244.91 71.02 241.99 C 77.13 237.77 82.90 232.96 88.69 228.30 C 91.38 226.13 93.82 223.63 96.53 221.50 C 99.27 219.34 102.47 218.08 104.70 215.28 C 108.22 210.86 105.12 203.54 98.86 205.25 C 93.57 206.70 89.34 211.67 85.09 214.95 C 82.58 216.88 80.24 219.53 77.57 221.20 C 75.56 222.45 73.63 222.97 71.86 224.69 C 67.28 229.17 72.12 235.72 77.70 234.72 C 81.27 234.08 84.31 231.86 87.51 230.27 C 91.60 228.23 95.79 226.43 99.80 224.22 C 103.88 221.97 108.05 219.69 112.02 217.26 C 113.82 216.16 115.42 214.79 117.28 213.76 C 118.17 213.31 119.06 212.88 119.96 212.46 C 121.84 211.82 121.70 211.46 119.53 211.35 C 118.54 209.63 117.55 207.90 116.56 206.17 C 117.36 204.64 117.08 204.39 115.71 205.44 C 114.59 205.92 113.47 206.40 112.35 206.87 C 110.59 207.59 108.81 208.26 107.04 208.96 C 103.60 210.32 99.86 211.41 96.56 213.12 C 91.07 215.96 84.53 220.64 80.54 225.35 C 76.47 230.17 80.44 236.24 86.38 235.38 C 89.74 234.89 92.65 232.77 95.65 231.26 C 99.00 229.57 101.73 227.51 104.56 225.06 C 108.16 221.93 115.79 216.96 115.12 211.38 C 114.73 208.12 112.69 205.43 109.12 205.38 C 104.66 205.32 100.59 207.68 97.12 210.30 C 92.43 213.85 87.91 217.64 82.99 220.90 C 81.06 222.18 78.92 223.06 77.06 224.47 C 75.16 225.90 73.89 227.87 72.09 229.41 C 67.78 233.09 63.12 236.41 57.94 238.77 C 60.36 241.91 62.79 245.05 65.21 248.19 C 68.48 245.02 71.95 242.28 75.13 238.99 C 72.31 236.16 69.48 233.34 66.65 230.51 C 64.93 232.45 62.31 233.47 60.33 235.16 C 57.95 237.19 55.90 239.18 53.16 240.76 C 50.07 242.54 47.65 243.80 44.11 243.48 C 40.85 243.18 37.59 242.31 34.31 242.43 C 28.07 242.67 26.53 250.21 31.28 253.62 C 37.07 257.76 36.07 263.17 35.96 269.53 C 39.96 269.53 43.96 269.53 47.96 269.53 C 48.01 263.82 48.19 258.14 46.28 252.67 C 44.62 247.92 38.06 246.59 35.32 251.24 C 31.59 257.56 32.88 264.99 32.45 271.99 C 31.92 280.42 29.30 288.52 28.63 296.87 C 32.63 296.87 36.63 296.87 40.63 296.87 C 40.55 289.36 41.73 281.91 41.96 274.40 C 37.96 274.40 33.96 274.40 29.96 274.40 C 29.98 279.43 30.27 284.49 29.99 289.52 C 29.76 293.65 28.72 297.53 28.54 301.67 C 31.07 299.74 33.61 297.81 36.14 295.88 C 35.06 295.61 33.57 294.37 32.41 293.90 C 27.17 291.80 23.47 298.54 25.63 302.71 C 30.64 312.41 42.18 316.15 52.46 316.33 C 52.46 312.33 52.46 308.33 52.46 304.33 C 50.55 304.33 48.10 304.75 46.25 304.39 C 44.49 304.04 42.27 302.92 40.57 302.27 C 37.77 301.20 34.85 298.81 32.47 296.96 C 30.05 300.10 27.63 303.24 25.20 306.38 C 34.13 310.66 44.56 313.52 54.49 313.71 C 61.54 313.86 62.25 304.10 56.08 301.93 C 51.40 300.28 51.46 292.04 50.26 288.34 C 48.36 282.44 40.76 282.87 38.69 288.34 C 37.56 291.35 36.93 294.52 36.69 297.74 C 36.66 298.19 36.38 300.59 36.71 301.14 C 36.50 303.00 37.24 302.88 38.93 300.78 C 41.49 299.56 41.88 299.06 40.10 299.28 C 36.22 297.95 29.22 298.64 25.47 299.68 C 21.65 300.75 20.03 305.11 21.88 308.50 C 24.28 312.89 30.77 313.55 35.15 314.37 C 41.46 315.55 47.95 314.58 54.25 315.89 C 57.49 316.56 60.29 318.44 63.39 319.49 C 66.37 320.50 69.41 320.96 72.34 322.17 C 75.44 323.44 78.18 323.57 81.33 324.40 C 84.44 325.21 86.84 325.95 90.16 325.98 C 102.32 326.09 115.46 326.79 126.99 323.40 C 131.57 322.06 135.22 321.57 137.19 316.38 C 138.18 313.78 138.83 310.88 140.70 308.69 C 142.70 306.34 145.98 306.29 148.85 305.42 C 155.21 303.51 154.19 293.51 147.26 293.63 C 142.07 293.73 136.80 293.88 131.61 293.67 C 127.77 293.50 124.05 292.85 120.18 292.92 C 116.08 293.00 111.97 292.68 107.87 292.80 C 103.52 292.93 99.21 294.21 94.92 294.30 C 88.38 294.45 86.49 304.64 93.32 306.09 C 105.84 308.75 118.51 308.03 130.87 305.34 C 133.91 304.68 136.05 300.91 135.06 297.96 C 133.16 292.32 127.64 291.34 122.39 290.81 C 116.99 290.27 111.65 289.88 106.23 289.43 C 98.74 288.80 91.87 286.05 84.28 286.17 C 76.25 286.28 68.76 286.02 61.05 283.45 C 55.38 281.57 50.87 289.48 55.21 293.48 C 60.61 298.46 65.11 301.90 72.27 304.14 C 79.75 306.48 87.86 307.49 95.67 307.67 C 95.67 303.67 95.67 299.67 95.67 295.67 C 87.55 295.96 79.60 296.55 71.42 296.28 C 67.84 296.17 64.14 296.05 60.59 295.61 C 57.70 295.25 55.07 294.51 52.18 295.35 C 46.44 297.03 46.51 305.22 52.18 306.92 C 67.08 311.41 83.46 313.51 99.00 313.67 C 99.00 309.67 99.00 305.67 99.00 301.67 C 93.33 301.64 87.68 301.30 82.02 301.06 C 77.23 300.85 72.34 299.89 67.60 300.61 C 62.61 301.38 61.69 309.48 66.17 311.58 C 73.04 314.80 80.24 316.14 87.77 316.72 C 95.90 317.35 103.62 315.82 111.70 315.64 C 111.17 311.71 110.64 307.78 110.11 303.85 C 100.60 306.20 90.98 306.58 81.68 303.20 C 81.14 307.13 80.61 311.05 80.08 314.98 C 85.41 314.95 92.27 312.16 95.32 307.54 C 98.47 302.77 95.30 297.60 92.03 293.94 C 88.03 289.49 82.92 285.57 78.40 281.64 C 73.72 277.58 68.77 272.26 63.18 269.51 C 58.05 266.98 51.66 272.28 54.97 277.71 C 61.55 288.54 74.84 291.34 86.50 292.51 C 92.65 293.13 98.91 294.29 105.10 293.65 C 108.43 293.30 111.62 292.36 114.92 291.85 C 117.50 291.45 120.03 291.46 122.48 290.42 C 131.62 286.54 134.66 270.38 122.17 269.08 C 115.91 268.44 108.98 270.98 102.73 271.54 C 95.12 272.23 87.55 273.48 79.90 273.67 C 72.19 273.86 72.15 285.63 79.90 285.67 C 96.68 285.74 113.44 287.44 130.24 286.94 C 133.86 286.83 137.47 286.54 141.05 285.95 C 145.88 285.15 140.26 286.00 143.13 285.60 C 144.39 285.41 145.67 285.28 146.94 285.09 C 150.94 284.48 156.07 283.58 157.21 278.94 C 158.03 275.60 156.15 272.69 153.02 271.56 C 141.77 267.49 128.47 269.15 116.83 269.67 C 109.15 270.00 109.06 281.67 116.83 281.67 C 123.70 281.67 130.57 281.67 137.44 281.67 C 143.77 281.67 150.33 282.24 156.57 280.97 C 161.17 280.03 165.92 278.55 168.67 274.45 C 171.29 270.53 171.32 265.11 167.01 262.37 C 163.73 260.29 159.41 260.99 155.73 261.00 C 148.59 261.01 141.45 261.00 134.31 261.00 C 120.02 261.00 105.74 261.00 91.46 261.00 C 83.73 261.00 83.73 272.84 91.46 273.00 C 105.92 273.30 120.53 274.58 134.96 275.70 C 142.04 276.25 149.60 277.06 156.69 276.43 C 159.48 276.19 162.63 275.51 164.89 273.75 C 165.23 273.64 165.57 273.56 165.92 273.53 C 167.48 273.41 166.56 272.54 163.17 270.90 C 165.25 267.99 165.53 267.07 164.00 268.14 C 163.33 268.57 162.62 268.93 161.88 269.21 C 155.20 271.65 146.42 268.97 139.47 269.00 C 132.18 269.02 124.62 269.56 117.36 270.18 C 110.24 270.80 103.73 269.37 96.74 268.17 C 90.25 267.04 82.77 267.49 76.74 264.62 C 76.26 268.27 75.79 271.93 75.31 275.58 C 79.09 274.48 82.91 274.59 86.78 274.18 C 90.46 273.79 94.16 272.83 97.79 272.12 C 104.14 270.87 113.17 270.22 117.26 264.88 C 118.48 263.29 118.32 260.42 117.26 258.82 C 113.08 252.45 103.82 254.01 97.22 253.03 C 92.42 252.32 87.66 251.39 82.85 250.76 C 78.11 250.13 72.83 250.21 68.32 248.51 C 67.79 252.44 67.26 256.37 66.73 260.30 C 83.77 260.93 101.11 258.98 118.13 258.02 C 126.20 257.56 134.23 256.82 142.26 255.94 C 146.21 255.51 150.15 254.84 154.09 254.44 C 157.06 254.14 159.43 254.35 161.76 252.02 C 165.56 248.22 162.61 242.01 157.51 241.78 C 153.38 241.59 149.52 242.91 145.53 243.73 C 140.29 244.81 134.92 245.22 129.63 245.94 C 119.53 247.31 109.82 248.32 99.60 248.33 C 91.88 248.34 91.87 260.31 99.60 260.33 C 126.30 260.40 152.89 261.45 179.52 258.62 C 185.16 258.02 191.84 257.96 197.15 256.10 C 201.44 254.60 206.07 254.57 210.64 254.34 C 215.45 254.10 220.28 253.16 225.05 252.49 C 227.34 252.17 229.41 251.31 231.66 251.01 C 233.80 250.74 235.92 250.41 238.04 249.98 C 240.02 249.59 241.75 247.69 242.23 245.79 C 245.07 234.57 230.05 235.72 223.26 234.76 C 218.01 234.03 212.85 232.72 207.59 232.06 C 204.77 231.71 202.08 231.73 199.25 231.73 C 196.44 231.73 193.92 230.97 191.16 230.54 C 185.83 229.72 180.34 228.58 174.94 228.36 C 168.12 228.08 161.17 228.84 154.36 228.33 C 149.81 227.99 145.46 227.15 140.86 227.80 C 135.31 228.59 130.24 229.00 124.61 229.00 C 112.72 228.98 100.72 229.53 88.93 230.82 C 83.62 231.41 77.73 230.82 72.52 232.13 C 69.61 232.86 64.37 234.78 62.37 237.02 C 54.32 246.05 70.47 251.29 76.55 252.08 C 88.53 253.64 100.68 253.90 112.74 253.48 C 126.47 253.00 140.10 251.77 153.85 251.65 C 167.57 251.53 180.81 253.69 194.45 254.36 C 201.38 254.70 202.35 244.51 196.04 242.57 C 188.22 240.17 179.84 240.17 171.82 238.85 C 162.82 237.37 153.60 236.94 144.49 236.60 C 135.15 236.26 125.45 235.71 116.12 236.39 C 111.86 236.69 107.80 237.77 103.49 237.75 C 98.82 237.73 94.31 238.18 89.67 238.31 C 81.95 238.53 81.93 250.12 89.67 250.31 C 93.87 250.42 98.00 251.01 102.24 251.00 C 106.81 250.98 111.38 250.98 115.94 251.00 C 124.85 251.02 133.64 249.78 142.53 249.66 C 150.25 249.56 150.27 237.68 142.53 237.66 C 127.88 237.63 113.11 238.35 98.64 240.84 C 91.96 241.99 85.20 243.69 78.61 245.31 C 73.07 246.68 66.35 249.62 61.92 253.28 C 58.42 256.18 60.45 262.30 64.57 263.31 C 67.34 263.99 69.95 263.70 72.70 262.95 C 73.79 262.65 74.83 262.24 75.87 261.81 C 76.44 261.57 79.12 260.88 77.89 260.54 C 76.42 258.61 74.96 256.68 73.49 254.75 C 73.30 256.32 71.27 258.40 70.58 259.92 C 69.77 261.70 68.92 263.31 67.83 264.96 C 65.16 268.99 62.31 272.80 60.41 277.29 C 58.89 280.89 59.93 284.84 64.00 286.11 C 69.55 287.83 73.57 283.07 76.82 279.35 C 79.24 276.57 81.13 273.63 83.15 270.55 C 85.13 267.52 87.55 265.23 89.91 262.53 C 86.57 260.58 83.22 258.64 79.88 256.69 C 77.32 265.34 69.15 272.44 68.72 281.74 C 68.57 285.04 71.60 287.65 74.72 287.74 C 83.17 287.98 91.10 282.92 97.73 278.20 C 101.15 275.76 104.14 272.64 107.75 270.52 C 111.18 268.51 115.11 265.17 119.07 264.59 C 116.61 263.19 114.15 261.80 111.69 260.40 C 111.48 258.94 112.07 259.14 111.28 259.83 C 110.70 260.33 110.36 261.46 109.87 262.07 C 108.63 263.59 106.87 264.77 105.33 265.96 C 101.30 269.08 101.65 277.90 108.36 277.15 C 112.59 276.67 115.37 274.59 118.57 271.94 C 122.05 269.05 124.25 265.00 127.56 262.15 C 124.15 260.73 120.73 259.32 117.32 257.90 C 117.26 256.46 118.23 256.65 116.90 257.37 C 116.25 257.72 115.44 258.64 114.85 259.16 C 113.64 260.23 112.49 261.31 111.34 262.45 C 108.39 265.41 105.50 268.44 102.41 271.26 C 98.40 274.90 91.96 280.37 93.98 286.53 C 94.75 288.89 97.08 291.14 99.76 290.93 C 105.58 290.49 110.91 288.29 114.87 283.90 C 120.04 278.19 111.58 269.67 106.39 275.42 C 104.62 277.38 102.47 278.73 99.76 278.93 C 101.69 280.40 103.62 281.87 105.55 283.34 C 106.03 284.79 104.42 285.67 105.83 284.80 C 106.20 284.57 106.56 283.96 106.84 283.64 C 107.78 282.58 108.85 281.61 109.89 280.65 C 112.36 278.36 114.75 276.02 117.14 273.63 C 121.17 269.59 129.59 264.35 129.32 257.90 C 129.09 252.50 123.02 250.27 119.08 253.66 C 116.78 255.63 115.47 258.43 113.33 260.58 C 112.55 261.38 109.21 265.05 108.36 265.15 C 109.37 268.87 110.38 272.60 111.39 276.33 C 117.58 271.54 124.47 265.91 123.26 257.21 C 122.77 253.74 118.72 252.60 115.88 253.02 C 111.85 253.61 108.98 255.95 105.61 258.00 C 102.01 260.19 98.63 262.08 95.42 264.85 C 90.17 269.37 82.04 275.94 74.72 275.73 C 76.72 277.73 78.72 279.73 80.72 281.73 C 80.81 279.81 82.94 277.01 83.80 275.32 C 84.68 273.59 85.59 271.91 86.57 270.24 C 88.53 266.91 90.35 263.61 91.45 259.88 C 93.10 254.33 85.43 249.46 81.43 254.04 C 77.85 258.14 74.47 261.83 71.52 266.47 C 70.34 268.33 69.11 270.00 67.64 271.63 C 67.08 272.24 66.41 272.87 65.94 273.55 C 64.51 275.62 64.04 273.55 67.19 274.53 C 68.38 277.47 69.58 280.41 70.77 283.35 C 73.06 277.94 76.90 273.65 79.73 268.58 C 82.14 264.25 84.89 259.69 85.49 254.75 C 85.80 252.18 83.40 249.60 81.08 248.96 C 78.13 248.14 75.68 248.86 72.92 250.04 C 71.62 250.60 69.19 252.08 67.76 251.73 C 68.64 255.08 69.53 258.42 70.41 261.76 C 71.89 260.53 74.85 259.61 76.57 258.79 C 79.42 257.44 82.21 256.83 85.28 256.18 C 91.43 254.88 97.46 253.06 103.69 252.11 C 116.54 250.15 129.56 249.63 142.53 249.66 C 142.53 245.66 142.53 241.66 142.53 237.66 C 133.64 237.78 124.85 239.02 115.94 238.99 C 111.38 238.98 106.81 238.98 102.24 238.99 C 98.00 239.01 93.88 238.41 89.67 238.31 C 89.67 242.31 89.67 246.31 89.67 250.31 C 94.03 250.19 98.25 249.65 102.63 249.73 C 107.26 249.81 111.56 248.81 116.13 248.38 C 124.78 247.59 133.91 248.26 142.59 248.53 C 151.24 248.81 160.07 249.06 168.63 250.41 C 176.63 251.69 185.07 251.75 192.85 254.14 C 193.39 250.22 193.92 246.29 194.45 242.36 C 184.01 241.84 173.72 239.70 163.24 239.54 C 152.53 239.37 141.75 239.68 131.06 240.27 C 120.03 240.88 109.10 241.83 98.03 241.65 C 92.83 241.57 87.68 240.99 82.50 240.63 C 80.19 240.47 77.86 240.35 75.59 239.82 C 75.52 239.80 72.33 238.60 72.11 238.71 C 71.96 238.66 71.81 238.59 71.67 238.51 C 70.67 237.96 70.98 238.87 72.61 241.26 C 72.03 242.67 71.44 244.09 70.85 245.50 C 68.83 247.45 70.63 245.95 71.87 245.42 C 72.98 244.94 73.98 244.19 75.15 243.86 C 78.37 242.93 82.77 243.21 86.15 242.99 C 89.81 242.75 93.38 242.00 97.03 241.68 C 100.83 241.35 104.66 241.76 108.46 241.71 C 116.03 241.61 123.56 241.04 131.16 241.05 C 137.84 241.05 143.94 239.06 150.66 239.91 C 158.39 240.88 166.29 240.09 174.07 240.33 C 181.32 240.55 188.34 242.84 195.50 243.59 C 198.94 243.95 202.38 243.49 205.82 243.84 C 209.43 244.22 212.97 245.17 216.54 245.78 C 220.02 246.38 223.53 246.84 227.04 247.23 C 228.43 247.39 229.82 247.51 231.22 247.63 C 234.50 247.91 232.41 248.30 231.49 246.36 C 231.28 244.82 231.08 243.28 230.88 241.74 C 230.81 242.02 230.74 242.31 230.66 242.60 C 232.06 241.20 233.46 239.80 234.86 238.41 C 233.14 238.75 231.44 238.80 229.72 238.96 C 227.27 239.19 225.19 240.33 222.80 240.75 C 218.30 241.55 213.56 242.07 209.01 242.29 C 204.64 242.50 199.31 242.43 195.20 243.94 C 189.81 245.93 183.39 246.27 177.62 246.80 C 165.23 247.93 152.52 248.67 140.08 248.95 C 126.60 249.26 113.09 248.36 99.60 248.32 C 99.60 252.32 99.60 256.32 99.60 260.32 C 109.66 260.32 119.32 259.56 129.25 258.02 C 134.18 257.26 139.16 256.79 144.11 256.06 C 148.49 255.42 153.10 253.57 157.52 253.77 C 156.10 250.36 154.69 246.94 153.27 243.53 C 153.10 243.70 152.93 243.87 152.76 244.04 C 154.18 243.46 155.59 242.87 157.00 242.28 C 142.89 244.11 128.59 245.48 114.35 246.22 C 98.55 247.03 82.55 248.88 66.73 248.29 C 59.56 248.02 59.14 257.82 65.14 260.08 C 68.31 261.27 71.79 261.42 75.13 261.81 C 79.97 262.39 84.77 263.06 89.58 263.87 C 93.66 264.56 97.77 265.25 101.90 265.59 C 103.15 265.70 104.39 265.70 105.64 265.80 C 106.27 265.81 106.89 265.86 107.51 265.94 C 109.16 266.50 108.96 266.14 106.91 264.87 C 106.91 262.85 106.91 260.83 106.91 258.81 C 106.67 259.12 106.43 259.43 106.19 259.74 C 107.39 258.82 108.58 257.91 109.78 256.99 C 103.55 258.48 97.33 259.95 91.01 261.20 C 84.78 262.44 78.23 262.23 72.12 264.01 C 67.50 265.35 65.84 272.66 70.69 274.97 C 78.29 278.60 86.38 278.46 94.51 279.90 C 99.31 280.75 104.07 281.82 108.93 282.27 C 113.10 282.66 117.06 282.05 121.20 281.85 C 130.51 281.40 139.71 280.86 149.01 281.52 C 156.84 282.09 167.08 282.70 173.03 276.32 C 177.57 271.45 174.61 262.63 168.01 261.63 C 164.89 261.16 161.82 262.03 159.00 263.31 C 155.15 265.05 151.24 264.39 147.05 264.32 C 128.50 263.98 110.01 261.38 91.46 260.99 C 91.46 264.99 91.46 268.99 91.46 272.99 C 112.56 272.99 133.66 272.99 154.76 272.99 C 156.39 272.99 158.01 272.94 159.63 272.92 C 159.97 272.92 161.15 273.08 161.40 272.92 C 162.04 272.51 159.08 268.09 158.39 268.01 C 157.34 267.88 155.11 269.02 153.97 269.25 C 151.54 269.74 149.18 269.69 146.72 269.67 C 136.76 269.58 126.80 269.66 116.84 269.66 C 116.84 273.66 116.84 277.66 116.84 281.66 C 127.45 281.20 139.58 279.42 149.83 283.13 C 148.44 280.67 147.04 278.20 145.64 275.74 C 146.89 270.63 149.91 272.84 146.65 273.01 C 145.86 273.06 145.03 273.32 144.24 273.44 C 142.83 273.65 141.41 273.78 140.01 273.99 C 133.95 274.93 127.94 275.02 121.82 274.99 C 107.84 274.93 93.89 273.72 79.90 273.66 C 79.90 277.66 79.90 281.66 79.90 285.66 C 89.18 285.43 98.82 284.35 107.99 282.94 C 110.64 282.53 113.25 282.08 115.90 281.74 C 117.08 281.60 118.26 281.45 119.44 281.29 C 121.86 281.23 121.59 280.26 118.65 278.36 C 118.61 278.36 117.94 279.46 117.53 279.49 C 115.60 279.66 113.64 279.94 111.73 280.27 C 107.73 280.97 104.01 281.93 99.92 281.81 C 95.44 281.68 90.96 280.96 86.50 280.51 C 79.31 279.78 69.46 278.45 65.33 271.65 C 62.60 274.39 59.86 277.12 57.13 279.86 C 63.57 283.04 69.61 289.58 74.87 294.46 C 77.52 296.92 80.61 299.21 83.04 301.85 C 83.26 302.08 83.49 302.32 83.71 302.55 C 84.59 304.33 85.09 303.74 85.21 300.80 C 85.49 301.02 80.71 302.97 80.09 302.98 C 73.04 303.02 72.30 312.51 78.49 314.76 C 89.72 318.85 101.85 318.24 113.30 315.42 C 119.85 313.80 118.50 303.48 111.71 303.63 C 98.44 303.93 84.91 307.16 72.23 301.21 C 71.75 304.87 71.28 308.52 70.80 312.18 C 72.58 311.90 74.79 312.73 76.57 312.87 C 79.01 313.06 81.47 313.04 83.92 313.16 C 88.95 313.41 93.97 313.63 99.01 313.66 C 106.73 313.70 106.74 301.74 99.01 301.66 C 84.44 301.51 69.34 299.55 55.38 295.35 C 55.38 299.20 55.38 303.06 55.38 306.92 C 56.94 306.46 60.07 307.58 61.70 307.71 C 65.51 308.03 69.37 308.25 73.20 308.32 C 80.78 308.46 88.15 307.93 95.68 307.66 C 103.38 307.38 103.43 295.83 95.68 295.66 C 89.37 295.52 83.06 294.72 76.98 293.01 C 74.69 292.37 72.42 291.59 70.29 290.53 C 67.56 289.18 65.91 287.03 63.70 284.99 C 61.75 288.33 59.81 291.67 57.86 295.01 C 64.06 297.07 71.05 298.35 77.58 298.36 C 80.93 298.37 84.29 297.96 87.64 298.17 C 90.85 298.37 93.57 299.72 96.64 300.47 C 102.86 301.97 109.43 301.07 115.69 302.01 C 117.46 302.28 119.20 302.51 120.99 302.68 C 121.73 302.75 122.62 302.97 123.37 302.93 C 125.94 302.80 124.75 304.88 123.49 301.14 C 124.89 298.68 126.29 296.22 127.68 293.76 C 117.53 295.97 106.82 296.69 96.52 294.51 C 95.99 298.44 95.46 302.36 94.92 306.29 C 99.27 306.19 103.49 304.90 107.87 304.79 C 111.97 304.68 116.08 304.99 120.19 304.91 C 124.06 304.84 127.77 305.49 131.62 305.65 C 136.81 305.88 142.07 305.71 147.27 305.62 C 146.73 301.69 146.20 297.77 145.67 293.84 C 140.37 295.43 135.08 296.14 131.55 300.85 C 129.85 303.13 128.47 305.64 127.35 308.24 C 127.25 308.47 125.81 311.80 126.02 311.91 C 128.25 311.13 128.71 310.81 127.39 310.95 C 126.65 310.96 125.92 311.05 125.19 311.19 C 124.14 311.40 123.24 311.99 122.27 312.27 C 121.69 312.58 121.79 312.61 122.57 312.35 C 122.10 312.33 121.62 312.31 121.15 312.29 C 118.83 312.40 116.94 313.56 114.75 313.69 C 108.32 314.06 101.83 313.51 95.39 313.80 C 83.97 314.32 72.52 310.25 62.04 305.88 C 56.71 303.67 50.64 303.11 44.89 302.96 C 42.06 302.88 39.55 303.03 36.74 302.47 C 35.22 302.16 33.50 301.55 31.97 301.39 C 29.90 301.18 30.71 299.62 32.25 302.43 C 31.05 305.37 29.86 308.31 28.66 311.24 C 33.80 309.81 40.54 313.11 45.32 310.14 C 48.09 308.43 48.81 305.31 48.79 302.28 C 48.77 298.43 48.87 295.22 50.27 291.52 C 46.41 291.52 42.56 291.52 38.70 291.52 C 39.43 293.77 39.31 296.16 39.98 298.42 C 40.67 300.72 41.98 303.04 43.16 305.12 C 45.50 309.22 48.43 311.91 52.90 313.49 C 53.43 309.56 53.96 305.63 54.50 301.70 C 46.88 301.55 38.13 299.30 31.27 296.01 C 25.61 293.30 18.25 300.95 24.00 305.43 C 27.68 308.31 31.52 311.77 35.97 313.38 C 38.27 314.21 40.76 315.46 43.13 316.03 C 46.08 316.74 49.45 316.31 52.46 316.32 C 60.19 316.35 60.19 304.46 52.46 304.32 C 46.30 304.21 39.05 302.54 36.00 296.65 C 33.74 299.58 31.48 302.52 29.22 305.46 C 27.46 304.76 29.26 305.75 30.09 306.26 C 31.01 306.83 31.90 307.17 32.95 307.44 C 36.86 308.44 40.38 305.57 40.55 301.65 C 40.73 297.58 41.77 293.60 41.99 289.50 C 42.27 284.48 41.99 279.42 41.97 274.39 C 41.93 266.65 30.21 266.68 29.97 274.39 C 29.73 281.91 28.55 289.35 28.63 296.86 C 28.72 304.67 40.02 304.47 40.63 296.86 C 40.90 293.59 42.08 290.23 42.59 286.97 C 43.19 283.13 43.78 279.27 44.17 275.40 C 44.51 272.04 44.63 268.68 44.63 265.30 C 44.63 262.60 44.26 259.70 45.68 257.29 C 42.03 256.81 38.37 256.33 34.72 255.85 C 36.28 260.33 36.00 264.84 35.97 269.52 C 35.91 277.25 47.84 277.24 47.97 269.52 C 48.05 264.41 48.66 259.17 46.76 254.31 C 44.91 249.58 41.40 246.14 37.35 243.24 C 36.34 246.97 35.33 250.70 34.32 254.42 C 38.65 254.26 42.99 256.07 47.32 255.69 C 51.02 255.36 54.57 253.65 57.80 251.91 C 61.01 250.18 63.92 248.18 66.62 245.73 C 69.30 243.29 72.73 241.71 75.14 238.98 C 80.22 233.24 72.07 224.90 66.66 230.50 C 63.48 233.78 60.00 236.53 56.73 239.70 C 51.53 244.73 58.11 251.80 64.00 249.12 C 68.43 247.10 72.68 244.34 76.48 241.31 C 79.98 238.51 82.80 234.75 86.68 232.63 C 90.90 230.33 94.81 227.19 98.67 224.32 C 101.38 222.31 105.44 217.32 109.13 217.37 C 107.13 215.37 105.13 213.37 103.13 211.37 C 102.98 210.10 104.57 209.53 103.00 210.31 C 102.55 210.53 102.06 211.13 101.69 211.47 C 99.61 213.39 97.56 215.34 95.40 217.16 C 92.39 219.71 87.12 223.23 83.20 223.80 C 85.14 227.14 87.09 230.49 89.03 233.83 C 95.23 226.50 104.24 222.90 112.90 219.48 C 117.16 217.80 122.56 216.34 125.81 212.95 C 129.09 209.52 129.86 203.95 125.59 200.98 C 118.45 196.02 107.47 205.86 101.51 209.26 C 96.55 212.08 91.76 215.03 86.59 217.47 C 82.87 219.21 78.55 222.41 74.51 223.13 C 76.46 226.48 78.41 229.82 80.35 233.16 C 81.47 232.07 83.62 231.52 84.93 230.56 C 87.09 228.96 89.01 227.06 91.09 225.37 C 92.98 223.83 94.97 222.42 96.88 220.90 C 98.26 219.79 100.30 217.29 102.06 216.81 C 100.11 213.47 98.17 210.13 96.22 206.78 C 94.44 209.02 91.60 210.10 89.37 211.88 C 86.66 214.06 84.22 216.56 81.52 218.77 C 76.14 223.17 70.68 227.68 64.96 231.62 C 67.90 233.88 70.84 236.14 73.78 238.40 C 72.59 239.82 72.67 240.03 74.01 239.03 C 74.61 238.71 75.21 238.38 75.80 238.03 C 77.40 237.07 78.91 235.94 80.44 234.88 C 83.70 232.61 87.09 230.52 90.30 228.20 C 96.38 223.81 102.84 217.40 110.63 216.99 C 118.31 216.60 118.36 204.59 110.63 205.00 Z" fill="#aabcff" fill-rule="nonzero" node-id="100" stroke="none" target-height="130.76701" target-width="226.8264" target-x="18.2476" target-y="196.023"/><path d="M 118.87 309.91 C 120.39 308.50 125.03 307.58 127.12 307.75 C 125.71 304.34 124.29 300.93 122.88 297.51 C 121.00 299.54 118.26 300.06 115.67 300.73 C 112.26 301.61 108.89 302.73 105.39 303.26 C 106.46 307.12 107.52 310.98 108.58 314.83 C 111.64 314.13 114.70 313.52 117.82 313.17 C 119.33 313.00 121.15 313.16 122.58 312.64 C 124.85 311.81 123.79 313.26 121.67 311.78 C 121.67 308.33 121.67 304.87 121.67 301.42 C 118.42 303.75 114.06 304.13 110.45 305.85 C 104.92 308.47 107.81 317.08 113.47 317.03 C 118.34 316.99 123.12 316.40 127.96 316.33 C 135.68 316.23 135.70 304.23 127.96 304.33 C 123.11 304.40 118.35 304.99 113.47 305.03 C 114.48 308.76 115.49 312.49 116.50 316.21 C 120.21 314.45 124.27 314.26 127.72 311.78 C 131.52 309.05 131.61 304.13 127.72 301.42 C 124.74 299.33 121.80 300.62 118.61 301.11 C 114.17 301.79 109.79 302.25 105.39 303.26 C 97.71 305.02 101.14 315.96 108.58 314.83 C 112.76 314.20 116.96 312.90 121.03 311.72 C 124.88 310.61 128.59 308.98 131.36 306.00 C 135.09 301.99 132.26 296.19 127.12 295.75 C 124.42 295.52 121.61 296.56 118.99 297.11 C 115.57 297.82 112.96 299.01 110.39 301.42 C 104.74 306.71 113.24 315.19 118.87 309.91 Z" fill="#aabcff" fill-rule="nonzero" node-id="102" stroke="none" target-height="21.557007" target-width="37.9914" target-x="97.7096" target-y="295.524"/><path d="M 17.60 247.15 C 14.43 249.34 11.34 251.41 9.54 254.93 C 7.47 258.98 7.97 263.84 7.45 268.24 C 6.86 273.19 6.50 278.13 6.05 283.09 C 5.72 286.69 5.95 292.58 4.00 295.82 C -0.01 302.46 10.24 308.38 14.36 301.87 C 18.16 295.88 20.17 289.20 21.44 282.27 C 22.83 274.74 21.79 266.72 25.03 259.65 C 21.30 258.64 17.57 257.63 13.85 256.62 C 14.26 259.77 12.93 263.54 12.65 266.73 C 12.22 271.46 11.64 276.15 11.12 280.86 C 10.63 285.34 10.75 289.78 10.46 294.25 C 10.21 298.21 9.32 301.85 10.31 305.78 C 11.60 310.91 18.65 311.51 21.28 307.22 C 24.65 301.73 25.61 293.52 26.59 287.31 C 27.89 279.05 27.78 270.83 27.98 262.50 C 28.17 254.75 16.34 254.81 15.98 262.50 C 15.74 267.52 14.47 272.55 14.09 277.59 C 13.69 282.89 14.08 288.20 13.93 293.50 C 13.73 300.82 23.30 300.90 25.72 295.10 C 28.53 288.36 28.57 279.43 29.36 272.22 C 30.24 264.15 31.39 255.97 31.30 247.85 C 31.21 240.13 19.30 240.11 19.30 247.85 C 19.30 248.23 19.30 248.62 19.30 249.00 C 19.30 256.72 31.30 256.73 31.30 249.00 C 31.30 248.62 31.30 248.23 31.30 247.85 C 27.30 247.85 23.30 247.85 19.30 247.85 C 19.38 255.36 18.32 262.90 17.55 270.37 C 16.85 277.19 16.80 285.53 14.15 291.91 C 18.08 292.44 22.00 292.97 25.93 293.50 C 26.08 288.20 25.69 282.89 26.09 277.59 C 26.47 272.52 27.74 267.56 27.98 262.50 C 23.98 262.50 19.98 262.50 15.98 262.50 C 15.81 269.71 16.10 276.97 15.02 284.12 C 14.25 289.18 13.63 296.74 10.92 301.16 C 14.57 301.64 18.23 302.12 21.89 302.59 C 21.11 299.52 22.42 295.67 22.53 292.53 C 22.67 287.97 22.80 283.51 23.34 278.98 C 23.87 274.62 24.29 270.28 24.71 265.92 C 25.01 262.92 26.24 259.63 25.85 256.62 C 25.18 251.53 17.47 247.47 14.67 253.59 C 8.44 267.21 12.27 282.76 4.00 295.82 C 7.45 297.84 10.91 299.86 14.36 301.87 C 18.03 295.79 17.84 286.12 18.36 279.25 C 18.69 274.96 19.25 270.72 19.66 266.44 C 19.83 264.73 19.41 261.95 20.16 260.38 C 20.79 259.09 22.55 258.28 23.66 257.51 C 29.97 253.16 23.98 242.75 17.60 247.15 Z" fill="#aabcff" fill-rule="nonzero" node-id="104" stroke="none" target-height="71.39699" target-width="31.399988" target-x="-0.0113897" target-y="240.114"/><path d="M 13.78 238.97 C 2.53 261.47 -10.08 296.48 12.72 316.24 C 18.53 321.28 27.05 312.83 21.21 307.76 C 3.09 292.06 15.37 262.58 24.14 245.03 C 27.59 238.14 17.24 232.06 13.78 238.97 Z" fill="#000000" fill-rule="nonzero" node-id="106" stroke="none" target-height="89.221985" target-width="37.669" target-x="-10.0814" target-y="232.057"/><path d="M 16.94 245.18 C 22.02 248.28 30.01 247.68 35.68 247.29 C 42.28 246.84 50.99 246.03 55.71 240.74 C 60.83 234.99 52.37 226.48 47.22 232.26 C 44.90 234.86 38.31 235.16 34.56 235.35 C 31.79 235.50 28.97 235.54 26.20 235.29 C 25.31 235.22 24.61 235.12 23.84 235.00 C 22.33 234.77 23.23 234.96 22.99 234.82 C 16.38 230.80 10.34 241.17 16.94 245.18 Z" fill="#000000" fill-rule="nonzero" node-id="108" stroke="none" target-height="21.796997" target-width="50.491" target-x="10.3396" target-y="226.478"/><path d="M 56.71 240.74 C 70.96 227.04 87.53 212.20 106.42 205.43 C 113.33 202.95 121.64 201.76 126.75 206.46 C 127.29 206.96 126.75 206.88 126.78 206.83 C 126.77 206.84 125.94 208.31 125.37 208.97 C 123.14 211.51 120.24 213.40 117.37 215.13 C 114.00 217.15 110.25 219.04 106.77 220.42 C 105.37 220.98 103.94 221.43 102.51 221.91 C 102.05 222.07 101.47 222.08 101.04 222.28 C 100.47 222.57 101.76 222.32 101.72 222.21 C 101.64 222.22 101.56 222.22 101.49 222.22 C 99.55 222.18 101.10 223.10 106.14 224.97 C 103.07 217.91 92.73 224.01 95.78 231.03 C 99.13 238.73 113.47 230.69 117.78 228.55 C 125.51 224.73 136.12 218.82 138.43 209.76 C 141.35 198.31 128.43 191.55 118.87 191.12 C 105.86 190.53 92.92 197.69 82.39 204.55 C 70.11 212.56 58.77 222.11 48.22 232.26 C 42.64 237.62 51.14 246.10 56.71 240.74 Z" fill="#000000" fill-rule="nonzero" node-id="110" stroke="none" target-height="55.569" target-width="98.7044" target-x="42.6446" target-y="190.532"/><path d="M 108.96 234.00 C 132.67 233.96 156.34 232.51 180.05 233.21 C 192.33 233.57 204.71 234.28 216.80 236.58 C 225.09 238.16 234.88 240.21 241.42 245.92 C 241.86 246.31 242.27 246.72 242.68 247.14 C 243.83 248.30 242.55 247.00 243.05 247.55 C 243.96 248.56 243.16 247.94 243.21 247.30 C 243.19 247.62 243.61 245.70 243.24 246.88 C 244.15 243.95 242.69 248.21 243.94 245.66 C 243.74 246.05 242.79 246.34 243.61 246.06 C 244.48 245.75 243.19 246.31 242.85 246.49 C 241.09 247.41 242.77 246.77 240.80 247.39 C 239.40 247.83 237.99 248.24 236.56 248.57 C 233.34 249.32 230.23 249.79 227.28 250.14 C 208.69 252.29 189.79 252.11 171.10 252.03 C 154.44 251.96 137.06 250.43 120.46 252.50 C 112.90 253.44 112.81 265.46 120.46 264.50 C 136.10 262.55 152.46 263.93 168.16 264.01 C 188.32 264.13 208.75 264.46 228.79 261.95 C 237.84 260.82 262.05 257.02 253.78 242.12 C 249.74 234.85 240.63 230.91 233.19 228.38 C 221.39 224.37 208.65 222.96 196.28 222.03 C 167.18 219.84 138.08 221.96 108.96 222.00 C 101.24 222.01 101.23 234.01 108.96 234.00 Z" fill="#000000" fill-rule="nonzero" node-id="112" stroke="none" target-height="45.610992" target-width="160.818" target-x="101.229" target-y="219.845"/><path d="M 122.96 265.00 C 137.63 264.94 153.35 262.63 167.63 266.93 C 169.17 267.39 169.53 267.47 171.00 268.38 C 171.90 268.95 171.78 269.53 171.72 268.75 C 171.79 269.60 172.19 268.10 171.78 269.35 C 171.82 269.24 171.85 269.43 171.44 270.27 C 171.23 270.70 169.99 272.65 169.09 273.46 C 163.23 278.73 150.59 278.97 142.89 279.50 C 131.59 280.27 120.28 280.02 108.96 280.00 C 101.24 279.99 101.23 291.99 108.96 292.00 C 120.48 292.02 132.00 292.28 143.50 291.45 C 154.32 290.68 168.82 289.94 177.32 282.17 C 183.99 276.08 186.61 265.52 178.81 259.29 C 171.65 253.57 160.64 253.11 151.91 252.71 C 142.24 252.25 132.62 252.96 122.96 253.00 C 115.24 253.03 115.23 265.03 122.96 265.00 Z" fill="#000000" fill-rule="nonzero" node-id="114" stroke="none" target-height="40.028015" target-width="85.381996" target-x="101.229" target-y="252.254"/><path d="M 110.46 314.50 C 115.44 314.50 120.56 314.41 125.45 315.46 C 127.56 315.91 129.99 316.42 131.77 317.73 C 132.72 318.42 132.09 317.79 132.82 318.49 C 133.54 319.20 133.20 319.32 133.11 319.09 C 133.23 319.41 133.87 321.46 133.54 320.52 C 133.47 320.35 133.36 321.32 133.51 320.61 C 133.25 321.83 134.28 320.19 133.30 320.98 C 135.02 319.59 132.20 321.65 133.14 321.06 C 132.53 321.44 131.44 321.96 130.56 322.20 C 129.73 322.42 128.91 322.66 128.06 322.84 C 127.44 322.97 124.93 323.37 125.66 323.27 C 120.76 323.90 115.75 323.86 110.81 323.67 C 87.32 322.80 63.91 318.12 40.96 313.30 C 36.77 312.42 32.58 311.50 28.39 310.59 C 26.01 310.07 23.30 309.16 20.87 309.71 C 13.35 311.44 16.53 323.01 24.06 321.29 C 22.48 321.65 19.99 320.99 22.72 321.63 C 24.07 321.94 25.44 322.21 26.80 322.51 C 31.12 323.45 35.45 324.39 39.79 325.29 C 52.45 327.92 65.17 330.32 77.96 332.23 C 91.28 334.22 104.85 336.05 118.36 335.75 C 126.63 335.57 138.72 335.00 143.66 327.04 C 146.39 322.65 145.72 317.32 143.41 312.90 C 137.82 302.19 120.68 302.51 110.46 302.50 C 102.74 302.49 102.73 314.49 110.46 314.50 Z" fill="#000000" fill-rule="nonzero" node-id="116" stroke="none" target-height="33.85199" target-width="133.04741" target-x="13.3456" target-y="302.194"/><path d="M 20.99 252.18 C 21.83 251.72 20.02 252.24 20.29 252.20 C 20.00 252.25 20.11 252.39 19.76 252.01 C 20.59 252.93 21.41 253.92 22.24 255.76 C 24.37 260.45 25.18 265.90 25.49 270.99 C 26.28 283.84 24.02 298.31 15.22 308.26 C 10.12 314.02 18.58 322.54 23.71 316.74 C 35.89 302.96 39.28 283.25 36.93 265.43 C 35.61 255.44 29.36 233.95 14.93 241.82 C 8.15 245.52 14.20 255.88 20.99 252.18 Z" fill="#000000" fill-rule="nonzero" node-id="118" stroke="none" target-height="88.59198" target-width="31.126972" target-x="8.15363" target-y="233.949"/><path d="M 950.96 926.50 L 950.96 982.00 C 950.96 995.20 940.16 1006.00 926.96 1006.00 L 201.96 1006.00 C 188.76 1006.00 177.96 995.20 177.96 982.00 L 177.96 472.00 C 177.96 458.80 188.76 448.00 201.96 448.00 L 263.46 448.00" fill="#d2e9fe" fill-rule="nonzero" node-id="120" stroke="none" target-height="558" target-width="773" target-x="177.964" target-y="448"/><path d="M 950.96 926.50 L 950.96 982.00 C 950.96 995.20 940.16 1006.00 926.96 1006.00 L 201.96 1006.00 C 188.76 1006.00 177.96 995.20 177.96 982.00 L 177.96 472.00 C 177.96 458.80 188.76 448.00 201.96 448.00 L 263.46 448.00" fill="none" node-id="122" stroke="#000000" stroke-linecap="butt" stroke-width="12" target-height="558" target-width="773" target-x="177.964" target-y="448"/><path d="M 1025.09 926.50 L 287.46 926.50 C 274.26 926.50 263.46 915.70 263.46 902.50 L 263.46 354.50 C 263.46 341.30 274.26 330.50 287.46 330.50 L 1055.46 330.50 C 1068.66 330.50 1079.46 341.30 1079.46 354.50 L 1079.46 842.99" fill="#ffffff" fill-rule="nonzero" node-id="124" stroke="none" target-height="596" target-width="815.996" target-x="263.464" target-y="330.5"/><path d="M 1025.09 926.50 L 287.46 926.50 C 274.26 926.50 263.46 915.70 263.46 902.50 L 263.46 354.50 C 263.46 341.30 274.26 330.50 287.46 330.50 L 1055.46 330.50 C 1068.66 330.50 1079.46 341.30 1079.46 354.50 L 1079.46 842.99" fill="none" node-id="126" stroke="#000000" stroke-linecap="butt" stroke-width="14" target-height="596" target-width="815.996" target-x="263.464" target-y="330.5"/><path d="M 119.06 294.29 C 126.40 293.00 134.27 293.58 141.47 295.42 C 144.50 296.20 147.30 297.19 149.99 298.81 C 150.08 298.86 150.84 299.55 150.87 299.55 C 151.57 299.47 150.69 299.46 150.91 299.43 C 150.75 299.45 150.89 298.27 150.93 298.27 C 151.24 298.32 150.84 298.22 150.86 298.23 C 150.58 298.15 147.83 300.32 147.40 300.54 C 145.92 301.31 144.40 301.94 142.77 302.35 C 139.32 303.21 135.61 303.17 132.07 303.17 C 124.69 303.17 117.33 302.51 109.96 302.00 C 102.26 301.46 102.29 313.47 109.96 314.00 C 119.80 314.68 129.79 315.81 139.64 314.87 C 147.84 314.08 160.31 310.44 162.55 301.18 C 164.73 292.21 154.89 287.12 147.95 284.81 C 137.75 281.42 126.40 280.87 115.87 282.71 C 108.28 284.05 111.49 295.61 119.06 294.29 Z" fill="#000000" fill-rule="nonzero" node-id="128" stroke="none" target-height="34.942993" target-width="62.473007" target-x="102.256" target-y="280.868"/><path d="M 781.96 470.00 L 1016.96 470.00 C 1023.56 470.00 1028.96 475.40 1028.96 482.00 L 1028.96 819.00 C 1028.96 825.60 1023.56 831.00 1016.96 831.00 L 781.96 831.00 C 775.36 831.00 769.96 825.60 769.96 819.00 L 769.96 482.00 C 769.96 475.40 775.36 470.00 781.96 470.00 Z" fill="#315bf4" fill-rule="nonzero" node-id="130" stroke="none" target-height="361" target-width="258.99597" target-x="769.964" target-y="470"/><path d="M 812.46 520.50 C 817.99 520.50 822.46 516.02 822.46 510.50 C 822.46 504.98 817.99 500.50 812.46 500.50 C 806.94 500.50 802.46 504.98 802.46 510.50 C 802.46 516.02 806.94 520.50 812.46 520.50 Z" fill="#ffffff" fill-rule="nonzero" node-id="132" stroke="none" target-height="20" target-width="20" target-x="802.464" target-y="500.5"/><path d="M 841.96 521.00 C 847.49 521.00 851.96 516.52 851.96 511.00 C 851.96 505.48 847.49 501.00 841.96 501.00 C 836.44 501.00 831.96 505.48 831.96 511.00 C 831.96 516.52 836.44 521.00 841.96 521.00 Z" fill="#ffffff" fill-rule="nonzero" node-id="134" stroke="none" target-height="20" target-width="20" target-x="831.964" target-y="501"/><path d="M 873.96 521.00 C 879.49 521.00 883.96 516.52 883.96 511.00 C 883.96 505.48 879.49 501.00 873.96 501.00 C 868.44 501.00 863.96 505.48 863.96 511.00 C 863.96 516.52 868.44 521.00 873.96 521.00 Z" fill="#ffffff" fill-rule="nonzero" node-id="136" stroke="none" target-height="20" target-width="20" target-x="863.964" target-y="501"/><path d="M 821.96 561.00 L 973.96 561.00 C 980.56 561.00 985.96 566.40 985.96 573.00 C 985.96 579.60 980.56 585.00 973.96 585.00 L 821.96 585.00 C 815.36 585.00 809.96 579.60 809.96 573.00 C 809.96 566.40 815.36 561.00 821.96 561.00 Z" fill="#ffffff" fill-rule="nonzero" node-id="138" stroke="none" target-height="24" target-width="176" target-x="809.964" target-y="561"/><path d="M 821.96 619.00 L 910.96 619.00 C 917.56 619.00 922.96 624.40 922.96 631.00 C 922.96 637.60 917.56 643.00 910.96 643.00 L 821.96 643.00 C 815.36 643.00 809.96 637.60 809.96 631.00 C 809.96 624.40 815.36 619.00 821.96 619.00 Z" fill="#ffffff" fill-rule="nonzero" node-id="140" stroke="none" target-height="24" target-width="113" target-x="809.964" target-y="619"/><path d="M 821.96 675.00 L 853.96 675.00 C 860.56 675.00 865.96 680.40 865.96 687.00 C 865.96 693.60 860.56 699.00 853.96 699.00 L 821.96 699.00 C 815.36 699.00 809.96 693.60 809.96 687.00 C 809.96 680.40 815.36 675.00 821.96 675.00 Z" fill="#ffffff" fill-rule="nonzero" node-id="142" stroke="none" target-height="24" target-width="56" target-x="809.964" target-y="675"/><path d="M 906.96 675.00 L 973.96 675.00 C 980.56 675.00 985.96 680.40 985.96 687.00 C 985.96 693.60 980.56 699.00 973.96 699.00 L 906.96 699.00 C 900.36 699.00 894.96 693.60 894.96 687.00 C 894.96 680.40 900.36 675.00 906.96 675.00 Z" fill="#ffffff" fill-rule="nonzero" node-id="144" stroke="none" target-height="24" target-width="91" target-x="894.964" target-y="675"/><path d="M 346.96 655.00 L 676.96 655.00 C 683.56 655.00 688.96 660.40 688.96 667.00 L 688.96 819.00 C 688.96 825.60 683.56 831.00 676.96 831.00 L 346.96 831.00 C 340.36 831.00 334.96 825.60 334.96 819.00 L 334.96 667.00 C 334.96 660.40 340.36 655.00 346.96 655.00 Z" fill="#d2e9fe" fill-rule="nonzero" node-id="146" stroke="none" target-height="176" target-width="354" target-x="334.964" target-y="655"/><path d="M 340.46 479.50 L 685.46 479.50 C 692.06 479.50 697.46 484.90 697.46 491.50 L 697.46 492.50 C 697.46 499.10 692.06 504.50 685.46 504.50 L 340.46 504.50 C 333.86 504.50 328.46 499.10 328.46 492.50 L 328.46 491.50 C 328.46 484.90 333.86 479.50 340.46 479.50 Z" fill="#315bf4" fill-rule="nonzero" node-id="148" stroke="none" target-height="25" target-width="369" target-x="328.464" target-y="479.5"/><path d="M 340.46 561.50 L 594.46 561.50 C 601.06 561.50 606.46 566.90 606.46 573.50 L 606.46 574.50 C 606.46 581.10 601.06 586.50 594.46 586.50 L 340.46 586.50 C 333.86 586.50 328.46 581.10 328.46 574.50 L 328.46 573.50 C 328.46 566.90 333.86 561.50 340.46 561.50 Z" fill="#315bf4" fill-rule="nonzero" node-id="150" stroke="none" target-height="25" target-width="278" target-x="328.464" target-y="561.5"/><path d="M 395.96 699.00 L 462.96 699.00 C 469.56 699.00 474.96 704.40 474.96 711.00 L 474.96 779.00 C 474.96 785.60 469.56 791.00 462.96 791.00 L 395.96 791.00 C 389.36 791.00 383.96 785.60 383.96 779.00 L 383.96 711.00 C 383.96 704.40 389.36 699.00 395.96 699.00 Z" fill="#398cff" fill-rule="nonzero" node-id="152" stroke="none" target-height="92" target-width="91" target-x="383.964" target-y="699"/><path d="M 520.96 699.00 L 630.96 699.00 C 635.36 699.00 638.96 702.60 638.96 707.00 C 638.96 711.40 635.36 715.00 630.96 715.00 L 520.96 715.00 C 516.56 715.00 512.96 711.40 512.96 707.00 C 512.96 702.60 516.56 699.00 520.96 699.00 Z" fill="#315bf4" fill-rule="nonzero" node-id="154" stroke="none" target-height="16" target-width="126" target-x="512.964" target-y="699"/><path d="M 522.96 737.00 L 553.96 737.00 C 558.36 737.00 561.96 740.60 561.96 745.00 C 561.96 749.40 558.36 753.00 553.96 753.00 L 522.96 753.00 C 518.56 753.00 514.96 749.40 514.96 745.00 C 514.96 740.60 518.56 737.00 522.96 737.00 Z" fill="#398cff" fill-rule="nonzero" node-id="156" stroke="none" target-height="16" target-width="47" target-x="514.964" target-y="737"/><path d="M 520.96 768.00 L 639.96 768.00 C 644.36 768.00 647.96 771.60 647.96 776.00 C 647.96 780.40 644.36 784.00 639.96 784.00 L 520.96 784.00 C 516.56 784.00 512.96 780.40 512.96 776.00 C 512.96 771.60 516.56 768.00 520.96 768.00 Z" fill="#398cff" fill-rule="nonzero" node-id="158" stroke="none" target-height="16" target-width="135" target-x="512.964" target-y="768"/><path d="M 1079.96 407.00 L 268.96 407.00 L 268.96 419.00 L 1079.96 419.00 L 1079.96 407.00 Z" fill="#000000" fill-rule="nonzero" node-id="160" stroke="none" target-height="12" target-width="810.996" target-x="268.964" target-y="407"/><path d="M 316.67 385.65 C 323.41 385.65 328.88 380.19 328.88 373.44 C 328.88 366.70 323.41 361.24 316.67 361.24 C 309.93 361.24 304.46 366.70 304.46 373.44 C 304.46 380.19 309.93 385.65 316.67 385.65 Z" fill="#ff3f08" fill-rule="nonzero" node-id="162" stroke="none" target-height="24.418" target-width="24.418" target-x="304.463" target-y="361.236"/><path d="M 352.69 386.27 C 359.43 386.27 364.90 380.80 364.90 374.06 C 364.90 367.31 359.43 361.85 352.69 361.85 C 345.94 361.85 340.48 367.31 340.48 374.06 C 340.48 380.80 345.94 386.27 352.69 386.27 Z" fill="#ff3f08" fill-rule="nonzero" node-id="164" stroke="none" target-height="24.418" target-width="24.418" target-x="340.479" target-y="361.848"/><path d="M 391.75 386.27 C 398.50 386.27 403.96 380.80 403.96 374.06 C 403.96 367.31 398.50 361.85 391.75 361.85 C 385.01 361.85 379.55 367.31 379.55 374.06 C 379.55 380.80 385.01 386.27 391.75 386.27 Z" fill="#ff3f08" fill-rule="nonzero" node-id="166" stroke="none" target-height="24.418" target-width="24.418" target-x="379.546" target-y="361.848"/><path d="M 1268.96 6.00 L 1259.96 6.00 L 1259.96 116.00 L 1268.96 116.00 L 1268.96 6.00 Z" fill="#315bf4" fill-rule="nonzero" node-id="168" stroke="none" target-height="110" target-width="9" target-x="1259.96" target-y="6"/><path d="M 1390.96 137.00 L 1390.96 128.00 L 1280.96 128.00 L 1280.96 137.00 L 1390.96 137.00 Z" fill="#315bf4" fill-rule="nonzero" node-id="170" stroke="none" target-height="9" target-width="110" target-x="1280.96" target-y="128"/><path d="M 1266.96 258.00 C 1336.55 258.00 1392.96 201.59 1392.96 132.00 C 1392.96 62.41 1336.55 6.00 1266.96 6.00 C 1197.38 6.00 1140.96 62.41 1140.96 132.00 C 1140.96 201.59 1197.38 258.00 1266.96 258.00 Z" fill="none" node-id="172" stroke="#000000" stroke-linecap="butt" stroke-width="12" target-height="252" target-width="252" target-x="1140.96" target-y="6"/><path d="M 1265.96 155.00 C 1278.67 155.00 1288.96 144.70 1288.96 132.00 C 1288.96 119.30 1278.67 109.00 1265.96 109.00 C 1253.26 109.00 1242.96 119.30 1242.96 132.00 C 1242.96 144.70 1253.26 155.00 1265.96 155.00 Z" fill="#ff3f08" fill-rule="nonzero" node-id="174" stroke="none" target-height="46" target-width="46" target-x="1242.96" target-y="109"/><path d="M 497.96 181.00 L 569.96 181.00 C 573.26 181.00 575.96 183.70 575.96 187.00 C 575.96 190.30 573.26 193.00 569.96 193.00 L 497.96 193.00 C 494.66 193.00 491.96 190.30 491.96 187.00 C 491.96 183.70 494.66 181.00 497.96 181.00 Z" fill="#315bf4" fill-rule="nonzero" node-id="176" stroke="none" target-height="12" target-width="84" target-x="491.964" target-y="181"/><path d="M 332.96 232.00 L 562.96 232.00 C 570.11 232.00 575.96 237.85 575.96 245.00 C 575.96 252.15 570.11 258.00 562.96 258.00 L 332.96 258.00 C 325.81 258.00 319.96 252.15 319.96 245.00 C 319.96 237.85 325.81 232.00 332.96 232.00 Z" fill="#315bf4" fill-rule="nonzero" node-id="178" stroke="none" target-height="26" target-width="256" target-x="319.964" target-y="232"/><path d="M 1003.00 849.00 L 1032.50 829.50 L 1043.00 826.50 L 1032.50 807.50 L 1023.00 770.00 L 1013.00 744.50 L 999.00 731.50 L 991.00 736.00 L 992.50 775.50 L 972.50 758.50 L 929.50 736.00 L 914.00 737.50 L 910.50 752.00 L 939.50 775.50 L 924.50 793.50 L 937.00 807.50 L 924.50 815.50 L 933.50 826.50 L 933.50 835.00 L 945.50 853.00 L 984.50 868.00 L 1003.00 849.00 Z" fill="#ffffff" fill-rule="nonzero" node-id="180" stroke="none" target-height="136.5" target-width="132.5" target-x="910.5" target-y="731.5"/><path d="M 1299.50 728.00 L 1312.00 749.00 L 1354.00 758.00 L 1346.00 719.00 L 1346.00 703.00 L 1329.50 694.50 L 1334.00 675.00 L 1364.50 653.00 L 1346.00 629.00 L 1331.00 615.00 L 1336.00 595.50 L 1331.00 562.00 L 1313.00 552.50 L 1308.00 539.00 L 1266.00 537.50 L 1196.00 508.50 L 1199.00 530.50 L 1192.00 558.00 L 1173.00 591.50 L 1152.00 646.50 L 1165.00 689.50 L 1208.50 719.00 L 1263.00 719.00 L 1299.50 728.00 Z" fill="#ffffff" fill-rule="nonzero" node-id="182" stroke="none" target-height="249.5" target-width="212.5" target-x="1152" target-y="508.5"/><path d="M 1004.00 845.50 L 978.50 880.50 L 1034.50 938.00 L 1107.50 982.50 L 1185.50 1002.00 L 1175.00 1083.50 L 1451.00 1083.50 L 1451.00 1076.50 L 1444.00 978.50 L 1434.00 909.50 L 1417.50 841.00 L 1393.00 790.00 L 1342.50 749.00 L 1299.00 749.00 L 1257.00 769.50 L 1238.00 790.00 L 1210.00 829.50 L 1200.00 883.00 L 1141.50 866.50 L 1048.50 825.50 L 1034.50 829.50 L 1004.00 845.50 Z" fill="#398cff" fill-rule="nonzero" node-id="184" stroke="none" target-height="334.5" target-width="472.5" target-x="978.5" target-y="749"/><path d="M 65.52 258.63 C 62.12 265.30 59.96 272.54 56.20 279.03 C 52.50 285.43 48.76 291.30 48.28 298.87 C 47.99 303.48 53.58 306.26 57.31 304.05 C 65.22 299.37 69.29 288.81 72.10 280.50 C 73.97 275.00 75.12 269.24 76.53 263.61 C 78.09 257.38 78.84 251.49 77.79 245.12 C 77.39 242.71 74.41 240.54 72.00 240.72 C 66.62 241.11 63.44 244.94 60.82 249.32 C 57.81 254.37 54.91 259.69 52.52 265.05 C 49.54 271.75 41.57 288.65 52.83 292.29 C 64.25 295.97 67.16 281.11 69.72 273.66 C 72.03 266.94 73.85 259.73 68.46 253.84 C 64.36 249.37 58.55 249.80 54.15 253.60 C 49.26 257.83 47.11 263.75 44.77 269.55 C 42.38 275.46 38.54 280.68 39.05 287.37 C 39.52 293.36 44.31 296.84 50.10 294.87 C 54.28 293.44 56.64 289.38 58.23 285.54 C 61.41 277.86 63.60 267.16 60.38 259.22 C 58.50 254.59 55.00 248.55 49.35 248.45 C 44.52 248.36 41.38 252.29 39.75 256.40 C 36.94 263.46 35.13 280.21 46.55 280.83 C 55.57 281.31 59.06 267.10 58.70 260.16 C 58.29 252.48 46.29 252.43 46.70 260.16 C 46.79 261.88 46.48 263.22 46.01 265.10 C 45.71 266.31 45.09 267.53 44.87 268.74 C 44.49 270.77 42.18 269.94 46.93 269.97 C 51.48 270.00 49.27 270.96 49.68 269.32 C 49.96 268.17 49.64 266.63 49.78 265.42 C 49.87 264.61 51.59 259.64 51.52 259.54 C 50.04 259.64 48.55 259.74 47.07 259.84 C 47.21 260.05 47.36 260.26 47.51 260.47 C 47.55 260.99 48.37 261.88 48.63 262.38 C 49.44 263.96 49.72 265.30 49.77 267.08 C 49.84 269.49 49.72 271.28 49.36 273.17 C 48.87 275.76 48.27 278.45 47.26 280.89 C 46.95 281.63 45.98 282.76 45.90 283.51 C 45.75 284.85 45.46 283.07 45.85 283.80 C 45.48 283.11 49.15 284.12 46.95 283.22 C 48.35 284.62 49.74 286.02 51.14 287.42 C 50.38 283.25 53.58 279.28 55.16 275.63 C 56.86 271.68 57.98 267.32 60.78 263.95 C 60.92 263.79 62.38 262.52 62.35 262.35 C 61.42 262.16 60.49 261.98 59.56 261.80 C 59.77 262.30 59.98 262.80 60.19 263.31 C 59.62 265.76 58.98 268.06 58.15 270.47 C 57.18 273.30 56.77 276.43 55.54 279.16 C 55.37 279.53 54.72 280.28 54.75 280.63 C 54.81 281.66 54.97 280.09 55.64 280.73 C 56.75 281.76 57.86 282.78 58.98 283.80 C 58.98 283.51 58.99 283.23 59.00 282.94 C 59.18 282.68 59.20 282.11 59.26 281.81 C 59.96 278.54 61.22 275.18 62.48 272.11 C 64.23 267.82 66.59 263.89 68.78 259.83 C 69.58 258.34 70.33 256.83 71.19 255.38 C 71.55 254.77 72.10 254.15 72.37 253.50 C 72.87 252.31 74.35 252.54 72.01 252.71 C 70.08 251.25 68.15 249.78 66.22 248.31 C 67.05 253.34 65.49 258.26 64.28 263.08 C 63.22 267.30 62.35 271.56 61.05 275.72 C 59.36 281.14 56.47 290.61 51.26 293.69 C 54.27 295.41 57.28 297.14 60.29 298.87 C 60.67 292.79 65.38 287.61 68.05 282.37 C 70.99 276.62 72.95 270.44 75.88 264.69 C 79.37 257.82 69.02 251.74 65.52 258.63 Z" fill="#aabcff" fill-rule="nonzero" node-id="186" stroke="none" target-height="65.72099" target-width="44.243004" target-x="35.1316" target-y="240.537"/><path d="M 1189.30 578.50 C 1197.64 577.63 1205.45 573.97 1213.28 571.16 C 1221.20 568.31 1229.27 566.07 1237.23 563.37 C 1241.47 561.94 1239.65 555.17 1235.37 556.62 C 1228.03 559.11 1220.57 561.09 1213.28 563.74 C 1205.65 566.50 1197.42 570.66 1189.30 571.50 C 1184.86 571.96 1184.81 578.96 1189.30 578.50 Z" fill="#93b9ff" fill-rule="nonzero" node-id="188" stroke="none" target-height="23.789978" target-width="56.659912" target-x="1184.81" target-y="555.174"/><path d="M 1237.14 578.62 C 1244.76 576.28 1251.83 572.72 1259.64 570.88 C 1264.03 569.84 1262.17 563.09 1257.78 564.12 C 1249.96 565.97 1242.90 569.53 1235.28 571.88 C 1230.99 573.20 1232.82 579.96 1237.14 578.62 Z" fill="#93b9ff" fill-rule="nonzero" node-id="190" stroke="none" target-height="16.863037" target-width="33.04004" target-x="1230.99" target-y="563.092"/><path d="M 1194.65 421.32 C 1187.97 415.21 1176.93 414.00 1168.79 417.60 C 1155.46 423.49 1154.89 439.68 1157.41 452.07 C 1161.33 471.31 1174.98 490.01 1190.03 502.21 C 1204.61 514.03 1222.84 521.58 1240.52 527.40 C 1261.01 534.16 1282.81 538.88 1304.46 539.00 C 1310.26 539.03 1310.26 530.03 1304.46 530.00 C 1288.18 529.91 1271.98 526.96 1256.29 522.73 C 1239.83 518.29 1223.56 512.37 1208.71 503.93 C 1193.71 495.40 1181.72 483.14 1173.27 468.07 C 1168.97 460.39 1165.73 451.97 1165.21 443.11 C 1164.91 438.10 1165.25 432.32 1168.79 428.40 C 1173.46 423.24 1183.77 423.55 1188.28 427.68 C 1192.55 431.58 1198.93 425.24 1194.65 421.32 Z" fill="#ffffff" fill-rule="nonzero" node-id="192" stroke="none" target-height="125.02902" target-width="155.37" target-x="1154.89" target-y="414.001"/><path d="M 1333.58 611.77 C 1340.56 625.40 1351.20 637.01 1359.58 649.77 C 1362.74 654.60 1370.54 650.09 1367.35 645.23 C 1358.97 632.47 1348.33 620.85 1341.35 607.23 C 1338.71 602.07 1330.94 606.62 1333.58 611.77 Z" fill="#ffffff" fill-rule="nonzero" node-id="194" stroke="none" target-height="52.520996" target-width="39.600098" target-x="1330.94" target-y="602.074"/><path d="M 1340.46 689.67 C 1340.68 685.27 1346.39 680.30 1349.81 677.34 C 1356.41 671.63 1363.97 666.98 1371.60 662.80 C 1379.27 658.59 1387.24 654.85 1395.53 652.01 C 1400.63 650.26 1407.74 647.74 1412.77 648.67 C 1418.43 649.72 1420.86 641.05 1415.16 640.00 C 1407.97 638.67 1400.38 640.88 1393.60 643.17 C 1384.07 646.39 1374.84 650.69 1366.06 655.58 C 1357.58 660.30 1349.24 665.66 1342.06 672.21 C 1337.06 676.76 1331.81 682.56 1331.46 689.67 C 1331.18 695.46 1340.19 695.44 1340.46 689.67 Z" fill="#ffffff" fill-rule="nonzero" node-id="196" stroke="none" target-height="56.790955" target-width="89.67993" target-x="1331.18" target-y="638.666"/><path d="M 1198.48 436.18 C 1240.85 395.62 1307.33 400.56 1357.52 422.56 C 1369.40 427.76 1380.85 434.07 1391.41 441.60 C 1403.73 450.39 1413.37 461.94 1420.79 475.07 C 1434.54 499.42 1441.38 527.47 1438.40 555.30 C 1436.80 570.20 1433.78 584.99 1430.03 599.48 C 1427.49 609.26 1425.14 620.61 1419.58 629.23 C 1416.43 634.11 1424.21 638.63 1427.35 633.77 C 1432.50 625.78 1434.98 615.54 1437.47 606.50 C 1441.26 592.74 1444.23 578.70 1446.23 564.57 C 1447.97 552.27 1449.13 539.91 1447.47 527.55 C 1445.28 511.31 1440.62 495.47 1433.72 480.60 C 1426.85 465.80 1417.43 451.72 1405.08 440.93 C 1394.74 431.90 1382.61 424.68 1370.33 418.63 C 1343.52 405.43 1313.70 397.39 1283.74 396.84 C 1250.12 396.22 1216.73 406.25 1192.11 429.82 C 1187.92 433.83 1194.29 440.19 1198.48 436.18 Z" fill="#ffffff" fill-rule="nonzero" node-id="198" stroke="none" target-height="243.00598" target-width="261.20996" target-x="1187.92" target-y="395.62"/><path d="M 1351.12 705.30 C 1343.77 749.71 1385.24 783.52 1427.09 783.29 C 1449.66 783.16 1471.96 772.76 1483.79 753.04 C 1495.70 733.18 1495.26 707.90 1484.98 687.50 C 1478.77 675.15 1469.37 664.58 1457.28 657.74 C 1445.72 651.21 1432.66 648.20 1419.66 646.16 C 1414.00 645.27 1411.55 653.94 1417.27 654.84 C 1437.99 658.08 1458.50 664.28 1471.28 682.13 C 1483.32 698.95 1487.50 720.92 1479.96 740.49 C 1464.84 779.74 1413.49 781.95 1383.15 760.14 C 1366.39 748.10 1356.37 728.44 1359.80 707.70 C 1360.74 702.03 1352.07 699.59 1351.12 705.30 Z" fill="#ffffff" fill-rule="nonzero" node-id="200" stroke="none" target-height="138.25" target-width="151.92993" target-x="1343.77" target-y="645.272"/><path d="M 1336.19 693.89 C 1346.51 700.12 1363.20 703.25 1374.23 697.39 C 1379.35 694.67 1374.81 686.90 1369.69 689.62 C 1361.63 693.90 1348.16 690.60 1340.73 686.12 C 1335.76 683.11 1331.24 690.89 1336.19 693.89 Z" fill="#ffffff" fill-rule="nonzero" node-id="202" stroke="none" target-height="20.136963" target-width="48.109985" target-x="1331.24" target-y="683.111"/><path d="M 1289.77 722.34 C 1300.64 725.79 1305.69 738.81 1310.08 748.27 C 1312.51 753.52 1320.27 748.96 1317.85 743.73 C 1312.28 731.71 1305.77 717.98 1292.16 713.66 C 1286.63 711.90 1284.26 720.59 1289.77 722.34 Z" fill="#ffffff" fill-rule="nonzero" node-id="204" stroke="none" target-height="41.61798" target-width="36.01001" target-x="1284.26" target-y="711.903"/><path d="M 1322.16 792.34 C 1334.22 790.58 1347.10 791.22 1357.99 797.18 C 1368.22 802.78 1375.39 812.30 1379.89 822.91 C 1386.08 837.51 1389.31 854.35 1386.43 870.08 C 1384.57 880.26 1378.67 888.79 1373.53 897.61 C 1370.53 902.75 1367.48 907.90 1364.92 913.28 C 1363.28 916.73 1361.00 921.03 1361.46 925.00 C 1362.12 930.69 1371.13 930.75 1370.46 925.00 C 1370.14 922.20 1372.55 918.01 1374.03 915.14 C 1376.75 909.84 1379.81 904.71 1382.81 899.57 C 1389.12 888.77 1394.50 879.29 1395.96 866.64 C 1397.88 850.12 1394.09 832.86 1387.39 817.76 C 1382.36 806.43 1374.37 796.24 1363.53 789.97 C 1350.19 782.25 1334.70 781.48 1319.77 783.66 C 1314.06 784.49 1316.48 793.17 1322.16 792.34 Z" fill="#ffffff" fill-rule="nonzero" node-id="206" stroke="none" target-height="149.268" target-width="83.81995" target-x="1314.06" target-y="781.484"/><path d="M 1237.28 791.32 C 1232.86 795.37 1229.90 801.56 1227.08 806.74 C 1222.35 815.43 1218.14 824.41 1214.27 833.52 C 1210.34 842.79 1206.66 852.25 1204.08 862.00 C 1202.30 868.74 1200.36 876.62 1202.29 883.53 C 1203.85 889.10 1212.53 886.73 1210.97 881.13 C 1209.38 875.47 1211.70 868.12 1213.28 862.49 C 1215.84 853.43 1219.23 844.58 1222.95 835.94 C 1226.56 827.56 1230.49 819.30 1234.85 811.28 C 1237.35 806.68 1240.07 800.96 1243.65 797.68 C 1247.92 793.76 1241.55 787.41 1237.28 791.32 Z" fill="#ffffff" fill-rule="nonzero" node-id="208" stroke="none" target-height="101.69" target-width="47.56006" target-x="1200.36" target-y="787.408"/><path d="M 1269.39 771.34 C 1295.73 757.50 1312.73 753.66 1340.73 762.66 C 1360.13 768.90 1377.68 784.73 1388.23 801.82 C 1401.95 824.04 1411.03 850.81 1417.78 875.87 C 1426.92 909.77 1431.43 944.86 1434.36 979.79 C 1437.62 1018.43 1438.68 1057.23 1438.70 1096.00 C 1438.70 1101.79 1447.70 1101.80 1447.70 1096.00 C 1447.68 1060.03 1446.75 1024.05 1444.03 988.18 C 1441.28 951.87 1436.98 915.36 1428.15 879.98 C 1421.48 853.27 1412.89 825.77 1399.03 801.82 C 1388.24 783.16 1373.18 767.37 1352.96 759.13 C 1325.53 747.95 1295.18 750.63 1267.00 762.66 C 1261.34 763.87 1263.73 772.55 1269.39 771.34 Z" fill="#ffffff" fill-rule="nonzero" node-id="210" stroke="none" target-height="353.85303" target-width="186.35999" target-x="1261.34" target-y="747.947"/><path d="M 1376.58 894.23 C 1364.63 910.53 1352.84 926.93 1339.87 942.46 C 1325.10 960.12 1308.89 978.00 1289.15 990.19 C 1280.33 995.63 1270.50 999.99 1259.96 999.83 C 1254.17 999.75 1254.17 1008.75 1259.96 1008.83 C 1281.22 1009.14 1300.27 994.92 1315.36 981.41 C 1333.87 964.82 1349.68 945.33 1364.64 925.57 C 1371.33 916.72 1377.80 907.72 1384.35 898.77 C 1387.78 894.09 1379.97 889.60 1376.58 894.23 Z" fill="#ffffff" fill-rule="nonzero" node-id="212" stroke="none" target-height="119.54199" target-width="133.60999" target-x="1254.17" target-y="889.598"/><path d="M 1305.81 575.52 C 1308.68 572.59 1313.98 566.69 1318.83 567.70 C 1321.71 568.30 1323.40 571.69 1324.43 574.11 C 1327.91 582.33 1328.31 592.23 1327.46 601.00 C 1326.91 606.76 1335.91 606.72 1336.46 601.00 C 1337.54 589.81 1336.72 575.72 1330.32 566.08 C 1321.70 553.10 1308.11 560.31 1299.45 569.15 C 1295.39 573.29 1301.75 579.66 1305.81 575.52 Z" fill="#ffffff" fill-rule="nonzero" node-id="214" stroke="none" target-height="53.666016" target-width="42.150024" target-x="1295.39" target-y="553.097"/><path d="M 1189.96 1007.50 C 1184.05 1007.80 1184.19 1016.22 1183.69 1020.43 C 1182.63 1029.32 1182.01 1038.27 1181.40 1047.20 C 1180.29 1063.20 1178.75 1079.45 1178.96 1095.50 C 1179.04 1101.29 1188.04 1101.30 1187.96 1095.50 C 1187.77 1081.35 1189.10 1067.05 1190.01 1052.94 C 1190.58 1044.21 1191.19 1035.47 1192.02 1026.76 C 1192.29 1023.90 1192.60 1020.73 1192.99 1018.06 C 1193.14 1017.05 1193.35 1016.05 1193.52 1015.04 C 1194.01 1012.14 1193.93 1016.30 1189.96 1016.50 C 1195.73 1016.21 1195.76 1007.21 1189.96 1007.50 Z" fill="#ffffff" fill-rule="nonzero" node-id="216" stroke="none" target-height="94.09003" target-width="17.01001" target-x="1178.75" target-y="1007.21"/><path d="M 989.18 859.27 C 993.44 850.58 1003.50 844.57 1011.52 839.83 C 1018.39 835.76 1027.69 829.75 1035.96 829.50 C 1041.74 829.33 1041.77 820.33 1035.96 820.50 C 1025.92 820.81 1015.36 827.09 1006.98 832.05 C 997.69 837.55 986.33 844.67 981.41 854.73 C 978.88 859.91 986.63 864.48 989.18 859.27 Z" fill="#ffffff" fill-rule="nonzero" node-id="218" stroke="none" target-height="44.15497" target-width="62.894043" target-x="978.876" target-y="820.325"/><path d="M 1217.50 523.00 L 1305.00 541.00 L 1307.50 558.50 L 1318.50 556.00 L 1329.50 565.50 L 1339.50 586.00 L 1332.00 612.00 L 1345.50 634.00 L 1365.50 649.00 L 1358.00 657.00 L 1332.00 677.50 L 1329.50 697.50 L 1345.50 702.00 L 1345.50 735.50 L 1365.50 763.50 L 1402.50 779.50 L 1443.00 782.50 L 1481.00 763.50 L 1499.50 735.50 L 1494.50 697.50 L 1465.50 657.00 L 1424.50 640.50 L 1437.50 603.50 L 1452.00 541.00 L 1443.00 500.00 L 1424.50 460.50 L 1384.00 428.00 L 1336.00 403.00 L 1277.00 394.50 L 1223.50 406.00 L 1193.50 420.50 L 1173.00 412.00 L 1158.00 423.00 L 1158.00 456.00 L 1177.00 491.00 L 1217.50 523.00 Z" fill="#ff3f08" fill-rule="nonzero" node-id="220" stroke="none" target-height="388" target-width="341.5" target-x="1158" target-y="394.5"/><path d="M 979.12 874.70 C 981.36 882.13 987.40 888.54 992.49 894.14 C 1000.85 903.36 1010.04 911.85 1019.37 920.07 C 1040.02 938.26 1061.84 955.62 1085.04 970.46 C 1092.79 975.41 1101.59 981.46 1110.77 983.34 C 1116.42 984.50 1118.84 975.82 1113.16 974.66 C 1105.95 973.19 1099.18 968.65 1092.94 964.80 C 1082.52 958.36 1072.53 951.22 1062.74 943.86 C 1041.75 928.07 1021.18 911.11 1002.95 892.16 C 999.44 888.51 995.97 884.78 992.89 880.77 C 990.87 878.15 988.45 874.46 987.80 872.30 C 986.14 866.77 977.45 869.13 979.12 874.70 Z" fill="#ffffff" fill-rule="nonzero" node-id="222" stroke="none" target-height="117.72601" target-width="141.38794" target-x="977.452" target-y="866.771"/><path d="M 1158.12 670.70 C 1167.39 696.62 1189.24 711.46 1215.05 718.72 C 1227.53 722.23 1240.52 721.79 1253.33 720.79 C 1264.75 719.90 1276.56 718.77 1287.66 715.84 C 1293.25 714.36 1290.88 705.68 1285.27 707.16 C 1275.34 709.79 1264.87 710.83 1254.67 711.68 C 1243.62 712.60 1231.68 713.64 1220.80 710.94 C 1197.03 705.04 1175.37 692.27 1166.80 668.30 C 1164.87 662.89 1156.17 665.22 1158.12 670.70 Z" fill="#ffffff" fill-rule="nonzero" node-id="224" stroke="none" target-height="59.338013" target-width="137.07996" target-x="1156.17" target-y="662.889"/><path d="M 1191.06 411.72 C 1177.42 407.12 1161.05 407.45 1154.65 422.56 C 1149.32 435.14 1152.12 450.66 1155.94 463.27 C 1160.49 478.27 1168.28 490.84 1179.85 501.51 C 1195.75 516.17 1215.40 526.38 1235.57 533.80 C 1257.42 541.84 1281.10 546.91 1304.46 546.50 C 1312.18 546.37 1312.20 534.37 1304.46 534.50 C 1267.70 535.14 1228.09 522.60 1198.27 501.13 C 1186.71 492.81 1176.24 482.25 1170.66 468.96 C 1166.14 458.22 1162.80 445.55 1164.05 433.81 C 1164.54 429.19 1166.23 424.59 1169.24 422.55 C 1174.24 419.17 1182.08 421.34 1187.87 423.29 C 1195.20 425.76 1198.35 414.18 1191.06 411.72 Z" fill="#000000" fill-rule="nonzero" node-id="226" stroke="none" target-height="139.79199" target-width="162.88" target-x="1149.32" target-y="407.115"/><path d="M 1190.18 516.60 C 1197.93 536.50 1185.95 557.83 1176.65 575.03 C 1165.59 595.48 1152.00 616.40 1148.63 639.85 C 1145.53 661.46 1153.50 684.39 1168.32 700.29 C 1182.57 715.57 1202.81 723.75 1223.20 726.55 C 1247.35 729.86 1272.50 726.44 1295.06 717.29 C 1302.12 714.42 1299.03 702.81 1291.87 705.72 C 1257.24 719.77 1208.94 722.36 1179.85 694.86 C 1165.63 681.42 1157.29 660.26 1160.56 640.72 C 1164.28 618.53 1177.49 598.86 1187.94 579.37 C 1198.41 559.84 1210.47 535.81 1201.75 513.41 C 1198.98 506.29 1187.37 509.38 1190.18 516.60 Z" fill="#000000" fill-rule="nonzero" node-id="228" stroke="none" target-height="223.57703" target-width="156.58997" target-x="1145.53" target-y="506.287"/><path d="M 1223.37 579.22 C 1214.61 580.78 1207.95 593.31 1206.54 601.21 C 1204.41 613.17 1216.38 619.03 1225.26 611.14 C 1231.67 605.44 1239.21 591.19 1233.41 582.94 C 1226.13 572.56 1217.23 585.89 1213.78 591.97 C 1209.97 598.70 1220.33 604.76 1224.15 598.03 C 1224.85 596.79 1225.49 595.53 1226.24 594.32 C 1226.71 593.55 1227.66 592.59 1227.99 591.77 C 1228.10 591.48 1229.06 590.95 1229.05 590.69 C 1229.08 591.31 1223.44 589.35 1223.38 589.39 C 1223.36 589.40 1222.56 593.47 1222.11 594.63 C 1221.13 597.13 1219.67 599.78 1217.77 601.71 C 1217.46 602.03 1214.62 601.48 1215.00 602.50 C 1214.46 603.59 1215.42 601.72 1216.98 603.25 C 1217.06 603.33 1217.06 604.99 1217.00 605.00 C 1217.64 604.85 1217.38 605.48 1218.20 604.65 C 1218.25 604.60 1218.26 603.58 1218.25 603.61 C 1218.51 602.48 1218.82 601.34 1219.26 600.26 C 1220.17 598.02 1221.51 595.73 1223.00 593.84 C 1223.68 592.98 1224.47 592.05 1225.33 591.37 C 1226.30 590.61 1226.03 590.88 1226.56 590.79 C 1234.15 589.43 1230.93 577.86 1223.37 579.22 Z" fill="#000000" fill-rule="nonzero" node-id="230" stroke="none" target-height="46.46399" target-width="34.799927" target-x="1204.41" target-y="572.564"/><path d="M 1157.72 651.24 C 1166.46 659.52 1176.73 662.47 1188.56 660.79 C 1196.17 659.70 1192.93 648.14 1185.37 649.22 C 1177.97 650.27 1171.56 647.83 1166.21 642.76 C 1160.60 637.45 1152.10 645.92 1157.72 651.24 Z" fill="#000000" fill-rule="nonzero" node-id="232" stroke="none" target-height="25.020996" target-width="44.07007" target-x="1152.1" target-y="637.449"/><path d="M 1303.14 575.36 C 1305.49 571.67 1308.08 567.98 1311.48 565.17 C 1312.43 564.39 1313.50 563.66 1314.68 563.06 C 1315.76 562.51 1315.00 562.89 1315.79 562.59 C 1316.17 562.45 1318.14 562.11 1316.93 562.24 C 1317.44 562.18 1318.00 562.14 1318.51 562.20 C 1319.60 562.31 1317.79 562.01 1319.21 562.32 C 1320.53 562.61 1320.16 562.45 1321.80 563.54 C 1322.79 564.19 1324.72 566.42 1325.76 568.12 C 1332.60 579.35 1332.97 596.17 1327.85 608.58 C 1324.81 615.96 1319.21 622.25 1311.70 625.22 C 1304.60 628.02 1307.69 639.63 1314.89 636.79 C 1334.76 628.94 1343.97 608.63 1343.14 588.08 C 1342.56 573.64 1336.15 550.30 1317.99 550.19 C 1306.60 550.12 1298.28 560.63 1292.78 569.30 C 1288.63 575.85 1299.02 581.87 1303.14 575.36 Z" fill="#000000" fill-rule="nonzero" node-id="234" stroke="none" target-height="89.513" target-width="55.339966" target-x="1288.63" target-y="550.115"/><path d="M 1333.68 624.10 C 1336.02 629.94 1339.96 635.26 1343.72 640.26 C 1348.27 646.30 1353.46 653.28 1360.43 656.68 C 1367.35 660.05 1373.44 649.71 1366.49 646.32 C 1361.03 643.66 1356.88 637.99 1353.36 633.23 C 1351.48 630.70 1349.70 628.10 1348.02 625.44 C 1347.33 624.37 1346.66 623.28 1346.03 622.17 C 1345.75 621.68 1344.52 619.09 1345.25 620.91 C 1342.41 613.83 1330.80 616.92 1333.68 624.10 Z" fill="#000000" fill-rule="nonzero" node-id="236" stroke="none" target-height="46.226013" target-width="42.639893" target-x="1330.8" target-y="613.826"/><path d="M 1151.53 525.36 C 1162.68 521.43 1168.31 532.07 1170.80 541.36 C 1174.09 553.62 1173.98 567.63 1170.06 579.75 C 1168.63 584.16 1166.45 589.05 1162.56 591.85 C 1158.48 594.78 1151.17 597.18 1146.10 596.23 C 1137.46 594.59 1139.21 581.26 1140.28 575.12 C 1141.23 569.67 1142.74 564.26 1144.74 559.10 C 1145.44 557.30 1146.20 555.51 1147.13 553.82 C 1147.45 553.25 1148.10 552.55 1148.29 551.93 C 1147.90 553.22 1148.13 551.62 1148.34 551.89 C 1148.36 551.92 1147.48 552.46 1146.46 552.50 C 1151.59 552.30 1151.62 544.29 1146.46 544.50 C 1142.43 544.66 1140.41 549.18 1138.96 552.34 C 1136.51 557.68 1134.66 563.34 1133.36 569.07 C 1131.05 579.23 1128.73 595.63 1139.42 602.14 C 1145.28 605.71 1152.77 604.41 1158.88 602.25 C 1165.95 599.74 1171.11 596.08 1174.67 589.36 C 1181.92 575.67 1182.40 557.95 1179.41 543.05 C 1176.50 528.61 1166.67 511.56 1149.40 517.64 C 1144.58 519.34 1146.65 527.07 1151.53 525.36 Z" fill="#000000" fill-rule="nonzero" node-id="238" stroke="none" target-height="94.14102" target-width="53.670044" target-x="1128.73" target-y="511.564"/><path d="M 1201.29 557.33 C 1229.15 531.60 1270.05 567.19 1269.53 598.37 C 1269.18 618.84 1251.66 642.83 1230.17 643.65 C 1208.35 644.50 1181.62 629.57 1181.14 605.65 C 1180.92 594.57 1184.80 583.58 1189.85 573.85 C 1191.91 569.89 1194.21 566.04 1196.80 562.40 C 1197.55 561.35 1198.32 560.31 1199.18 559.34 C 1199.78 558.66 1201.13 557.58 1200.48 557.95 C 1204.93 555.37 1200.91 548.46 1196.44 551.05 C 1190.97 554.22 1187.04 562.32 1184.14 567.59 C 1178.63 577.58 1174.47 588.54 1173.37 599.95 C 1172.19 612.24 1175.71 624.35 1184.50 633.22 C 1194.11 642.93 1207.59 649.27 1221.06 651.13 C 1235.18 653.08 1247.40 649.19 1257.72 639.44 C 1266.64 631.01 1273.87 620.26 1276.41 608.11 C 1280.74 587.41 1271.38 566.23 1255.17 553.22 C 1237.70 539.20 1213.05 535.59 1195.63 551.67 C 1191.84 555.17 1197.51 560.82 1201.29 557.33 Z" fill="#000000" fill-rule="nonzero" node-id="240" stroke="none" target-height="121.47601" target-width="108.55005" target-x="1172.19" target-y="531.604"/><path d="M 1419.46 631.50 C 1392.17 630.39 1364.54 642.41 1343.82 659.64 C 1332.96 668.66 1311.91 692.69 1331.79 704.19 C 1344.50 711.55 1362.86 707.53 1376.22 704.78 C 1383.78 703.23 1380.58 691.66 1373.03 693.21 C 1362.64 695.35 1349.13 698.44 1338.94 694.41 C 1339.90 694.78 1338.04 693.94 1337.84 693.83 C 1336.44 693.03 1337.78 693.85 1337.06 693.33 C 1336.70 693.07 1335.59 691.84 1336.51 692.87 C 1336.30 692.63 1336.09 692.25 1335.96 691.95 C 1335.67 691.27 1336.51 693.01 1335.99 692.01 C 1335.72 691.49 1335.69 690.11 1335.79 691.49 C 1335.74 690.80 1335.75 690.13 1335.81 689.44 C 1335.78 689.79 1335.68 689.73 1336.02 688.62 C 1336.19 688.07 1336.71 686.44 1336.68 686.52 C 1339.41 679.77 1346.19 673.21 1352.31 668.12 C 1360.77 661.09 1370.62 655.36 1380.76 651.11 C 1392.99 645.98 1406.16 642.96 1419.46 643.50 C 1427.19 643.81 1427.17 631.81 1419.46 631.50 Z" fill="#000000" fill-rule="nonzero" node-id="242" stroke="none" target-height="81.15802" target-width="115.27991" target-x="1311.91" target-y="630.394"/><path d="M 1420.63 650.33 C 1462.17 650.68 1503.11 695.32 1489.96 737.42 C 1483.24 758.93 1462.46 773.72 1440.90 777.62 C 1420.35 781.34 1397.77 776.70 1379.89 766.10 C 1359.89 754.25 1347.06 733.72 1352.25 710.09 C 1353.90 702.57 1342.34 699.35 1340.68 706.90 C 1328.82 760.87 1387.42 794.47 1434.61 790.45 C 1460.35 788.25 1485.66 774.16 1497.52 750.48 C 1508.90 727.75 1504.89 700.95 1491.62 679.92 C 1476.31 655.68 1449.70 638.58 1420.63 638.33 C 1412.91 638.27 1412.90 650.27 1420.63 650.33 Z" fill="#000000" fill-rule="nonzero" node-id="244" stroke="none" target-height="156.198" target-width="180.08008" target-x="1328.82" target-y="638.268"/><path d="M 1193.54 435.91 C 1237.70 393.50 1304.65 392.60 1357.74 418.02 C 1371.39 424.55 1384.37 432.66 1396.01 442.35 C 1407.27 451.71 1418.44 462.48 1425.80 475.26 C 1434.12 489.73 1438.54 506.32 1441.17 522.71 C 1443.15 535.07 1444.76 550.14 1443.05 561.85 C 1441.12 575.11 1437.59 588.27 1433.80 601.10 C 1430.32 612.87 1426.86 626.53 1419.28 636.47 C 1414.61 642.61 1425.02 648.60 1429.65 642.53 C 1436.73 633.23 1440.30 620.62 1443.75 609.63 C 1447.82 596.63 1451.31 583.35 1453.79 569.95 C 1456.14 557.24 1455.74 544.52 1454.37 531.69 C 1452.42 513.51 1448.43 495.51 1440.99 478.76 C 1428.09 449.73 1400.22 427.22 1372.88 412.31 C 1345.11 397.15 1313.42 388.36 1281.68 388.80 C 1245.70 389.30 1211.12 402.40 1185.06 427.42 C 1179.47 432.78 1187.97 441.26 1193.54 435.91 Z" fill="#000000" fill-rule="nonzero" node-id="246" stroke="none" target-height="260.241" target-width="276.67004" target-x="1179.47" target-y="388.356"/><path d="M 1266.46 725.50 C 1273.89 725.51 1281.67 726.00 1288.42 729.40 C 1296.46 733.45 1301.48 740.87 1304.68 749.10 C 1307.45 756.22 1319.05 753.12 1316.25 745.90 C 1312.07 735.17 1305.81 725.25 1295.47 719.56 C 1286.60 714.69 1276.43 713.51 1266.46 713.50 C 1258.74 713.49 1258.73 725.49 1266.46 725.50 Z" fill="#000000" fill-rule="nonzero" node-id="248" stroke="none" target-height="42.722046" target-width="60.32007" target-x="1258.73" target-y="713.493"/><path d="M 1249.71 782.74 C 1270.67 764.24 1298.08 749.68 1326.88 754.65 C 1351.57 758.91 1372.24 775.30 1386.73 795.17 C 1404.18 819.07 1412.10 846.27 1418.43 874.77 C 1426.04 909.04 1432.08 943.70 1436.49 978.53 C 1441.39 1017.31 1444.42 1053.39 1444.46 1092.50 C 1444.47 1100.22 1456.47 1100.23 1456.46 1092.50 C 1456.37 1018.78 1446.60 947.72 1430.92 875.77 C 1424.30 845.39 1416.25 815.87 1397.89 790.22 C 1382.40 768.57 1360.74 749.98 1334.26 743.93 C 1299.60 736.01 1266.81 751.67 1241.22 774.26 C 1235.42 779.38 1243.93 787.84 1249.71 782.74 Z" fill="#000000" fill-rule="nonzero" node-id="250" stroke="none" target-height="364.221" target-width="221.04993" target-x="1235.42" target-y="736.009"/><path d="M 1233.22 786.26 C 1208.51 814.38 1198.01 848.95 1193.46 885.50 C 1192.51 893.15 1204.52 893.08 1205.46 885.50 C 1209.59 852.33 1219.28 820.27 1241.71 794.75 C 1246.79 788.96 1238.33 780.44 1233.22 786.26 Z" fill="#000000" fill-rule="nonzero" node-id="252" stroke="none" target-height="112.70203" target-width="54.28003" target-x="1192.51" target-y="780.444"/><path d="M 1319.06 789.29 C 1337.37 783.49 1355.97 786.23 1369.71 800.25 C 1382.55 813.35 1389.09 832.31 1390.41 850.34 C 1391.75 868.61 1387.86 885.46 1377.51 900.59 C 1365.10 918.74 1350.91 935.75 1335.26 951.19 C 1313.41 972.76 1287.72 991.07 1257.87 999.71 C 1250.46 1001.86 1253.61 1014.44 1261.06 1012.29 C 1289.76 1003.97 1314.92 986.53 1336.67 966.44 C 1355.13 949.38 1371.55 930.01 1385.95 909.43 C 1397.65 892.71 1403.39 874.43 1402.61 853.89 C 1401.80 832.72 1394.97 811.13 1381.05 794.89 C 1364.57 775.63 1339.65 770.19 1315.87 777.71 C 1308.53 780.04 1311.67 791.63 1319.06 789.29 Z" fill="#000000" fill-rule="nonzero" node-id="254" stroke="none" target-height="244.25299" target-width="152.93005" target-x="1250.46" target-y="770.187"/><path d="M 1301.87 782.72 C 1292.42 785.88 1284.27 792.26 1276.75 798.61 C 1267.12 806.73 1258.26 815.78 1249.82 825.12 C 1241.23 834.61 1233.08 844.50 1225.43 854.76 C 1219.81 862.29 1214.11 870.10 1210.12 878.64 C 1206.87 885.59 1217.21 891.70 1220.48 884.70 C 1229.13 866.17 1243.91 849.62 1257.44 834.55 C 1265.65 825.42 1274.25 816.58 1283.54 808.54 C 1289.87 803.07 1297.35 796.87 1305.06 794.29 C 1312.34 791.85 1309.22 780.25 1301.87 782.72 Z" fill="#000000" fill-rule="nonzero" node-id="256" stroke="none" target-height="111.44" target-width="105.46997" target-x="1206.87" target-y="780.255"/><path d="M 1045.44 832.68 C 1063.58 842.91 1082.82 851.31 1102.00 859.38 C 1125.57 869.30 1149.55 878.47 1174.04 885.86 C 1185.48 889.31 1197.07 892.41 1208.87 894.29 C 1216.42 895.49 1219.68 883.93 1212.06 882.72 C 1189.93 879.20 1168.35 871.90 1147.33 864.32 C 1124.28 856.01 1101.56 846.69 1079.33 836.35 C 1069.91 831.97 1060.55 827.42 1051.49 822.32 C 1044.75 818.52 1038.70 828.89 1045.44 832.68 Z" fill="#000000" fill-rule="nonzero" node-id="258" stroke="none" target-height="76.96399" target-width="180.9801" target-x="1038.7" target-y="818.525"/><path d="M 977.22 885.74 C 1005.54 919.92 1039.66 950.02 1077.99 972.53 C 1112.39 992.72 1150.19 1003.96 1189.22 1011.12 C 1208.78 1014.70 1229.58 1018.08 1249.46 1015.50 C 1252.70 1015.08 1255.43 1013.04 1255.46 1009.50 C 1255.49 1006.58 1252.68 1003.08 1249.46 1003.50 C 1232.59 1005.69 1215.12 1003.41 1198.45 1000.61 C 1180.77 997.64 1163.25 993.60 1146.00 988.73 C 1105.37 977.27 1068.69 955.48 1036.49 928.43 C 1018.06 912.95 1001.06 895.79 985.71 877.26 C 980.78 871.30 972.33 879.84 977.22 885.74 Z" fill="#000000" fill-rule="nonzero" node-id="260" stroke="none" target-height="146.77502" target-width="283.162" target-x="972.328" target-y="871.305"/><path d="M 984.42 880.60 C 988.31 867.66 999.21 856.85 1009.71 848.89 C 1020.33 840.85 1033.62 833.20 1047.30 833.00 C 1055.01 832.89 1055.03 820.89 1047.30 821.00 C 1030.94 821.23 1015.24 829.67 1002.54 839.38 C 989.85 849.08 977.56 861.75 972.85 877.41 C 970.61 884.82 982.19 887.98 984.42 880.60 Z" fill="#000000" fill-rule="nonzero" node-id="262" stroke="none" target-height="67.09094" target-width="84.41803" target-x="970.612" target-y="820.892"/><path d="M 1043.54 814.76 C 1036.09 805.27 1033.78 791.75 1031.14 780.31 C 1028.28 767.95 1025.90 754.69 1019.39 743.60 C 1014.91 735.96 1005.05 726.11 995.39 726.59 C 985.94 727.05 984.50 737.80 984.50 745.17 C 984.51 754.69 987.00 766.13 985.51 774.74 C 984.21 782.29 995.77 785.54 997.08 777.93 C 998.48 769.86 997.41 761.65 996.86 753.55 C 996.60 749.60 996.33 745.60 996.61 741.64 C 996.70 740.25 996.94 739.78 997.26 738.08 C 997.03 739.32 997.28 737.49 997.52 737.63 C 997.65 737.71 997.03 738.15 996.31 738.50 C 995.67 738.82 995.74 738.43 995.90 738.50 C 996.34 738.72 997.07 738.84 997.41 739.00 C 999.50 739.97 1001.41 741.41 1003.18 742.87 C 1006.85 745.88 1009.29 749.59 1011.22 753.91 C 1015.93 764.43 1017.82 776.21 1020.47 787.36 C 1023.47 799.99 1026.91 812.87 1035.06 823.24 C 1039.82 829.31 1048.26 820.77 1043.54 814.76 Z" fill="#000000" fill-rule="nonzero" node-id="264" stroke="none" target-height="103.198975" target-width="64.051025" target-x="984.209" target-y="726.114"/><path d="M 993.21 768.76 C 984.26 760.75 973.80 754.11 963.61 747.84 C 953.06 741.36 941.01 733.56 928.62 731.34 C 918.86 729.59 905.63 734.80 905.23 746.11 C 904.85 756.57 914.52 766.01 921.85 772.18 C 930.55 779.51 942.39 788.34 954.30 788.67 C 962.02 788.88 962.02 776.88 954.30 776.67 C 953.16 776.64 952.87 776.57 950.95 775.99 C 949.22 775.46 947.59 774.76 945.97 773.96 C 941.67 771.84 937.57 769.25 933.73 766.39 C 927.71 761.91 919.15 754.87 917.40 747.74 C 917.09 746.49 916.92 746.88 917.42 745.55 C 917.16 746.24 917.50 745.55 917.47 745.58 C 918.14 744.94 918.15 744.86 919.18 744.35 C 920.71 743.59 923.65 742.88 924.34 742.84 C 924.89 742.81 926.23 743.03 927.89 743.47 C 938.25 746.21 947.98 752.35 957.03 757.89 C 966.54 763.71 976.39 769.78 984.72 777.24 C 990.46 782.38 998.97 773.92 993.21 768.76 Z" fill="#000000" fill-rule="nonzero" node-id="266" stroke="none" target-height="59.291992" target-width="94.125" target-x="904.849" target-y="729.592"/><path d="M 952.06 776.72 C 940.83 772.17 924.27 773.47 921.29 787.73 C 917.86 804.23 936.17 814.94 949.03 819.45 C 956.34 822.01 959.48 810.43 952.23 807.88 C 945.06 805.37 931.94 798.90 932.94 790.45 C 933.13 788.86 934.43 787.31 936.49 786.60 C 940.51 785.23 945.06 786.75 948.87 788.29 C 956.02 791.18 959.14 779.58 952.06 776.72 Z" fill="#000000" fill-rule="nonzero" node-id="268" stroke="none" target-height="49.843018" target-width="41.621033" target-x="917.855" target-y="772.172"/><path d="M 932.87 804.72 C 927.79 806.18 922.09 808.78 920.65 814.40 C 919.40 819.28 922.08 823.83 925.35 827.23 C 931.27 833.39 940.71 839.05 949.04 841.12 C 956.53 842.98 959.73 831.41 952.23 829.55 C 947.23 828.31 941.72 825.04 937.25 821.71 C 936.15 820.89 935.10 820.00 934.12 819.03 C 933.48 818.38 932.81 816.89 932.20 816.53 C 932.52 816.72 932.28 816.03 932.32 816.79 C 932.32 816.75 932.22 818.08 931.99 818.00 C 931.85 817.95 935.80 816.36 936.06 816.29 C 943.46 814.14 940.31 802.56 932.87 804.72 Z" fill="#000000" fill-rule="nonzero" node-id="270" stroke="none" target-height="40.419983" target-width="40.330017" target-x="919.399" target-y="802.56"/><path d="M 928.30 836.00 C 928.08 848.03 939.75 856.12 949.28 861.05 C 959.15 866.16 970.32 870.40 981.46 871.50 C 989.14 872.26 989.09 860.25 981.46 859.50 C 974.56 858.82 964.61 855.22 957.40 851.72 C 951.62 848.92 940.16 843.54 940.30 836.00 C 940.44 828.28 928.44 828.27 928.30 836.00 Z" fill="#000000" fill-rule="nonzero" node-id="272" stroke="none" target-height="43.984985" target-width="61.061035" target-x="928.082" target-y="828.275"/><path d="M 1180.38 1002.61 C 1177.26 1018.19 1175.05 1033.96 1173.39 1049.76 C 1171.80 1064.90 1170.54 1080.28 1171.46 1095.50 C 1171.93 1103.17 1183.93 1103.23 1183.46 1095.50 C 1182.58 1080.80 1183.74 1065.95 1185.23 1051.33 C 1186.78 1036.06 1188.94 1020.85 1191.95 1005.80 C 1193.45 998.26 1181.89 995.03 1180.38 1002.61 Z" fill="#000000" fill-rule="nonzero" node-id="274" stroke="none" target-height="108.198" target-width="22.909912" target-x="1170.54" target-y="995.032"/><path d="M 24.46 1076.00 L 1661.96 1076.00 C 1668.56 1076.00 1673.96 1081.40 1673.96 1088.00 C 1673.96 1094.60 1668.56 1100.00 1661.96 1100.00 L 24.46 1100.00 C 17.86 1100.00 12.46 1094.60 12.46 1088.00 C 12.46 1081.40 17.86 1076.00 24.46 1076.00 Z" fill="#000000" fill-rule="nonzero" node-id="276" stroke="none" target-height="24" target-width="1661.4963" target-x="12.4636" target-y="1076"/></svg>